<?xml version="1.0" encoding="UTF-8"?>
<svg xmlns="http://www.w3.org/2000/svg" xmlns:xlink="http://www.w3.org/1999/xlink" viewBox="0 0 25 25" width="25px" height="25px">
<g id="surface56438348">
<path style="fill-rule:nonzero;fill:rgb(0%,0%,0%);fill-opacity:1;stroke-width:1;stroke-linecap:butt;stroke-linejoin:round;stroke:rgb(80.000001%,80.000001%,80.000001%);stroke-opacity:1;stroke-miterlimit:10;" d="M 165.110913 85.999999 C 165.110913 129.665113 129.665113 165.110913 85.999999 165.110913 C 72.562499 165.110913 59.963153 161.596074 48.877892 155.674922 L 11.133928 165.029801 C 9.971328 165.300173 8.700578 164.948689 7.862424 164.083498 C 6.997233 163.19127 6.672787 161.92052 6.997233 160.75792 L 17.136192 124.555078 C 10.72837 113.118333 6.889084 100.032317 6.889084 85.999999 C 6.889084 42.334884 42.334884 6.889084 85.999999 6.889084 C 129.665113 6.889084 165.110913 42.334884 165.110913 85.999999 Z M 13.756539 85.999999 C 13.756539 99.383424 17.406564 111.874621 23.733274 122.635435 C 24.219944 123.446552 24.35513 124.392855 24.084758 125.312121 L 15.216549 156.918634 L 48.283073 148.726356 C 49.121227 148.510058 50.013455 148.645244 50.770497 149.077839 C 61.206865 154.890842 73.184355 158.243458 85.999999 158.243458 C 125.933977 158.243458 158.243458 125.933977 158.243458 85.999999 C 158.243458 46.06602 125.933977 13.756539 85.999999 13.756539 C 46.06602 13.756539 13.756539 46.06602 13.756539 85.999999 Z M 61.315014 44.795271 C 61.369088 44.795271 62.937247 44.551936 64.721704 45.39009 C 66.506161 46.228244 67.885059 47.958626 68.885436 50.337902 C 69.72359 52.365693 71.1836 55.826458 72.45435 58.935738 C 73.103243 60.47686 73.698062 61.93687 74.184732 63.045396 C 74.644365 64.153922 75.103998 65.127262 75.049923 65.019114 C 75.752891 66.452086 76.455859 69.155809 75.212147 71.616196 C 74.59029 72.859908 74.022509 74.184732 72.697685 75.698817 C 71.778419 76.753268 70.69693 78.186241 69.480255 79.402916 C 69.290995 79.565139 69.399144 79.456991 69.318032 79.538102 C 70.50767 81.565894 74.319918 87.568157 79.7544 92.353746 C 83.404425 95.571175 86.730004 97.653042 89.379651 99.058977 C 92.056336 100.464913 93.86783 101.086769 95.32784 101.816774 C 95.81451 102.033072 95.706362 102.006034 95.706362 102.006034 C 96.895999 100.654173 100.816397 96.030808 101.789737 94.597835 C 102.817151 93.083751 104.574571 91.785964 106.33199 91.596704 C 108.116447 91.407443 109.360159 91.92115 110.360536 92.272634 C 111.955732 92.840416 114.578343 94.111165 117.552438 95.544138 C 120.580607 96.977111 123.554701 98.437121 124.609153 98.950828 C 126.501758 99.897131 128.313252 99.978243 129.908448 102.600853 C 130.692528 103.844566 130.611416 104.466422 130.692528 105.304576 C 130.746602 106.115692 130.746602 107.007921 130.638453 108.008298 C 130.47623 110.009052 129.98956 112.442402 129.043257 115.09205 C 127.691396 118.769113 124.690264 121.175425 121.608021 123.122105 C 118.525778 125.068786 115.416497 126.447684 112.604626 126.853242 C 108.819415 127.421024 103.790491 127.664359 98.274898 125.933977 C 95.273766 125.014711 91.353369 123.716924 86.351482 121.608021 C 75.536593 116.984656 66.80357 109.441271 60.612046 102.898263 C 57.502766 99.626759 55.042378 96.625627 53.284959 94.327463 C 51.500502 92.029299 50.175678 90.109656 50.283827 90.244842 L 50.283827 90.217805 L 50.25679 90.217805 C 49.310487 88.947056 41.280432 78.970321 41.280432 67.398389 C 41.280432 56.313128 47.742328 50.013455 49.310487 48.337147 C 51.90606 45.552313 55.042378 44.714159 57.259431 44.714159 C 58.638329 44.714159 60.017227 44.741196 61.315014 44.795271 Z M 54.366448 53.014587 C 52.176433 55.366825 48.147886 58.746478 48.147886 67.398389 C 48.147886 75.590668 54.690894 84.648137 55.745346 86.054073 L 55.772383 86.08111 C 56.367202 86.86519 57.07017 87.973716 58.719441 90.136694 C 60.368711 92.272634 62.693912 95.111543 65.613932 98.166749 C 71.399898 104.277161 79.511065 111.19869 89.055205 115.281311 C 93.759681 117.282065 97.409707 118.471703 100.329727 119.390969 C 104.520496 120.688755 108.359782 120.526532 111.577211 120.039862 C 112.6587 119.904676 115.551683 118.823187 117.930959 117.33614 C 120.310234 115.822055 122.20284 113.740189 122.554324 112.739812 C 123.311366 110.71202 123.66285 108.792377 123.798036 107.413479 C 123.825073 106.899772 123.825073 106.575325 123.825073 106.277916 C 123.635813 106.277916 122.986919 105.818283 121.553947 105.115315 C 120.580607 104.628645 117.579475 103.168635 114.60538 101.762699 C 111.631286 100.329727 108.305707 98.842679 108.062372 98.761568 L 108.035335 98.761568 C 107.467553 98.54527 107.494591 98.572307 107.413479 98.54527 C 105.65606 101.113806 102.006034 105.277538 100.789359 106.656437 C 99.870094 107.710888 98.410084 108.738303 96.733776 108.927563 C 95.057468 109.143861 93.597458 108.630154 92.272634 107.981261 C 91.73189 107.683851 89.244465 106.764586 86.189259 105.142352 C 83.134053 103.520119 79.294767 101.140843 75.185109 97.517855 C 68.669139 91.785964 64.478369 84.945547 63.20762 82.782569 C 62.261317 81.160336 61.963907 78.997358 62.558726 77.402162 C 63.153545 75.834003 64.126885 75.022886 64.640592 74.509179 C 65.262449 73.91436 66.398012 72.45435 67.506538 71.1836 C 68.236543 70.345446 68.344692 69.966925 69.074697 68.533953 C 69.101734 68.479878 69.101734 68.479878 69.128771 68.479878 C 69.101734 68.452841 69.020623 68.371729 68.912474 68.128394 L 68.885436 68.101357 C 68.588027 67.506538 68.317655 66.857645 67.858022 65.722081 C 67.371352 64.586518 66.749496 63.126508 66.100602 61.585386 C 64.829853 58.476106 63.369843 54.988304 62.531689 53.014587 C 62.207242 52.257544 61.990945 51.879023 61.855758 51.7168 C 61.720572 51.7168 61.477237 51.689763 60.990567 51.662725 C 59.882041 51.608651 58.584255 51.608651 57.259431 51.608651 C 56.745723 51.608651 55.502011 51.770874 54.366448 53.014587 Z M 54.366448 53.014587 " transform="matrix(0.144477,0,0,0.144477,0.075,0.075)"/>
<path style=" stroke:none;fill-rule:nonzero;fill:rgb(18.039216%,80.000001%,44.313726%);fill-opacity:1;" d="M 12.5 1.070312 C 6.191406 1.070312 1.070312 6.191406 1.070312 12.5 C 1.070312 14.527344 1.625 16.417969 2.550781 18.070312 L 1.085938 23.300781 C 1.039062 23.46875 1.085938 23.652344 1.210938 23.78125 C 1.332031 23.90625 1.515625 23.957031 1.683594 23.917969 L 7.136719 22.566406 C 8.738281 23.421875 10.558594 23.929688 12.5 23.929688 C 18.808594 23.929688 23.929688 18.808594 23.929688 12.5 C 23.929688 6.191406 18.808594 1.070312 12.5 1.070312 Z M 12.5 2.0625 C 18.269531 2.0625 22.9375 6.730469 22.9375 12.5 C 22.9375 18.269531 18.269531 22.9375 12.5 22.9375 C 10.648438 22.9375 8.917969 22.453125 7.410156 21.613281 C 7.300781 21.550781 7.171875 21.53125 7.050781 21.5625 L 2.273438 22.746094 L 3.554688 18.179688 C 3.59375 18.046875 3.574219 17.910156 3.503906 17.792969 C 2.589844 16.238281 2.0625 14.433594 2.0625 12.5 C 2.0625 6.730469 6.730469 2.0625 12.5 2.0625 Z M 8.347656 6.535156 C 8.027344 6.535156 7.574219 6.65625 7.199219 7.058594 C 6.972656 7.300781 6.039062 8.210938 6.039062 9.8125 C 6.039062 11.484375 7.199219 12.925781 7.335938 13.109375 L 7.339844 13.109375 L 7.339844 13.113281 C 7.324219 13.09375 7.515625 13.371094 7.773438 13.703125 C 8.027344 14.035156 8.382812 14.46875 8.832031 14.941406 C 9.726562 15.886719 10.988281 16.976562 12.550781 17.644531 C 13.273438 17.949219 13.839844 18.136719 14.273438 18.269531 C 15.070312 18.519531 15.796875 18.484375 16.34375 18.402344 C 16.75 18.34375 17.199219 18.144531 17.644531 17.863281 C 18.089844 17.582031 18.523438 17.234375 18.71875 16.703125 C 18.855469 16.320312 18.925781 15.96875 18.949219 15.679688 C 18.964844 15.535156 18.964844 15.40625 18.957031 15.289062 C 18.945312 15.167969 18.957031 15.078125 18.84375 14.898438 C 18.613281 14.519531 18.351562 14.507812 18.078125 14.371094 C 17.925781 14.296875 17.496094 14.085938 17.058594 13.878906 C 16.628906 13.671875 16.25 13.488281 16.019531 13.40625 C 15.875 13.355469 15.695312 13.28125 15.4375 13.308594 C 15.183594 13.335938 14.929688 13.523438 14.78125 13.742188 C 14.640625 13.949219 14.074219 14.617188 13.902344 14.8125 C 13.902344 14.8125 13.917969 14.816406 13.847656 14.785156 C 13.636719 14.679688 13.375 14.589844 12.988281 14.386719 C 12.605469 14.183594 12.125 13.882812 11.597656 13.417969 C 10.8125 12.726562 10.261719 11.859375 10.089844 11.566406 C 10.101562 11.554688 10.085938 11.570312 10.113281 11.546875 C 10.289062 11.371094 10.445312 11.164062 10.578125 11.011719 C 10.769531 10.792969 10.851562 10.601562 10.941406 10.421875 C 11.121094 10.066406 11.019531 9.675781 10.917969 9.46875 C 10.925781 9.484375 10.859375 9.34375 10.792969 9.183594 C 10.722656 9.023438 10.636719 8.8125 10.542969 8.589844 C 10.359375 8.140625 10.148438 7.640625 10.027344 7.347656 C 9.882812 7.003906 9.683594 6.753906 9.425781 6.632812 C 9.167969 6.511719 8.941406 6.546875 8.933594 6.546875 C 8.746094 6.539062 8.546875 6.535156 8.347656 6.535156 Z M 8.347656 7.53125 C 8.539062 7.53125 8.726562 7.53125 8.886719 7.539062 C 9.046875 7.546875 9.039062 7.546875 9.007812 7.535156 C 8.976562 7.519531 9.019531 7.515625 9.109375 7.734375 C 9.230469 8.019531 9.441406 8.523438 9.625 8.972656 C 9.71875 9.195312 9.808594 9.40625 9.878906 9.570312 C 9.945312 9.734375 9.984375 9.828125 10.027344 9.914062 L 10.03125 9.917969 C 10.074219 10 10.070312 9.949219 10.054688 9.976562 C 9.949219 10.183594 9.933594 10.238281 9.828125 10.359375 C 9.667969 10.542969 9.503906 10.753906 9.414062 10.839844 C 9.339844 10.914062 9.199219 11.03125 9.113281 11.257812 C 9.027344 11.488281 9.070312 11.800781 9.207031 12.035156 C 9.390625 12.347656 9.996094 13.335938 10.9375 14.164062 C 11.53125 14.6875 12.085938 15.03125 12.527344 15.265625 C 12.96875 15.5 13.328125 15.632812 13.40625 15.675781 C 13.597656 15.769531 13.808594 15.84375 14.050781 15.8125 C 14.292969 15.785156 14.503906 15.636719 14.636719 15.484375 C 14.8125 15.285156 15.339844 14.683594 15.59375 14.3125 C 15.605469 14.316406 15.601562 14.3125 15.683594 14.34375 L 15.6875 14.34375 C 15.722656 14.355469 16.203125 14.570312 16.632812 14.777344 C 17.0625 14.980469 17.496094 15.191406 17.636719 15.261719 C 17.84375 15.363281 17.9375 15.429688 17.964844 15.429688 C 17.964844 15.472656 17.964844 15.519531 17.960938 15.59375 C 17.941406 15.792969 17.890625 16.070312 17.78125 16.363281 C 17.730469 16.507812 17.457031 16.808594 17.113281 17.027344 C 16.769531 17.242188 16.351562 17.398438 16.195312 17.417969 C 15.730469 17.488281 15.175781 17.511719 14.570312 17.324219 C 14.148438 17.191406 13.621094 17.019531 12.941406 16.730469 C 11.5625 16.140625 10.390625 15.140625 9.554688 14.257812 C 9.132812 13.816406 8.796875 13.40625 8.558594 13.097656 C 8.320312 12.785156 8.21875 12.625 8.132812 12.511719 L 8.128906 12.507812 C 7.976562 12.304688 7.03125 10.996094 7.03125 9.8125 C 7.03125 8.5625 7.613281 8.074219 7.929688 7.734375 C 8.09375 7.554688 8.273438 7.53125 8.347656 7.53125 Z M 8.347656 7.53125 "/>
</g>
</svg>
