<svg xmlns="http://www.w3.org/2000/svg" viewBox="0 0 500 500"><g id="freepik--Shadow--inject-53"><ellipse id="freepik--path--inject-53" cx="250" cy="416.24" rx="193.89" ry="11.32" style="fill:#f5f5f5"></ellipse></g><g id="freepik--banknotes-2--inject-53"><path d="M171.92,124.41c-9.57-5.36-18.33-16.92-25.87-19.41a98.53,98.53,0,0,1,8.35-14.17c7.54,7.31,16.3,20.16,25.87,19.4A100.19,100.19,0,0,1,171.92,124.41Z" style="fill:#C53F3F"></path><path d="M171.92,124.41c-9.57-5.36-18.33-16.92-25.87-19.41a98.53,98.53,0,0,1,8.35-14.17c7.54,7.31,16.3,20.16,25.87,19.4A100.19,100.19,0,0,1,171.92,124.41Z" style="fill:#fff;opacity:0.5;isolation:isolate"></path><path d="M178,113.29c-1-.12-1.33-1.22-.71-2.32-7.72-1.66-14.88-11-21.24-17.41a1.73,1.73,0,0,1-2.63.09,97.69,97.69,0,0,0-5.21,8.57,2.18,2.18,0,0,1,.36,2.93c6.37,3.4,13.52,12,21.25,17.17a2.5,2.5,0,0,1,3-.53h0a97.72,97.72,0,0,0,5.2-8.51ZM160.06,111c-1.9-1.77-2.34-4.5-1.06-6.1s3.81-1.28,5.71.55,2.44,4.44,1.16,6S162,112.79,160.06,111Z" style="opacity:0.2;isolation:isolate"></path><g style="opacity:0.2;isolation:isolate"><path d="M161.51,110l-.34.41-.38-.35c.12-.14.23-.28.35-.41a3.49,3.49,0,0,1-.86-1.38l.52-.18a3,3,0,0,0,.67,1.16l.61-.74c-.42-.58-.85-1.24-.42-1.75s.93-.37,1.68.26c.12-.13.23-.27.35-.41l.37.36-.34.41a3.49,3.49,0,0,1,.74,1.1l-.5.2a3.35,3.35,0,0,0-.57-.91l-.62.74c.42.58.87,1.24.44,1.75S162.28,110.66,161.51,110Zm1-1.93.54-.65c-.35-.27-.6-.27-.73-.11S162.25,107.79,162.46,108.11Zm.14,1.66c.15-.18,0-.45-.21-.78l-.54.65C162.22,109.92,162.46,109.93,162.6,109.77Z"></path></g><path d="M254,166.73c-8.8,4.74-22.12,5.34-27.68,10.05A108.73,108.73,0,0,1,219.06,162c9.39-2,23.74-1.87,27.68-10.06A109.37,109.37,0,0,1,254,166.73Z" style="fill:#C53F3F"></path><path d="M254,166.73c-8.8,4.74-22.12,5.34-27.68,10.05A108.73,108.73,0,0,1,219.06,162c9.39-2,23.74-1.87,27.68-10.06A109.37,109.37,0,0,1,254,166.73Z" style="fill:#fff;opacity:0.5;isolation:isolate"></path><path d="M248.07,155.57c-.58.76-1.6.39-2.17-.73-5,5.32-15.76,5.9-23.9,7.42a1.62,1.62,0,0,1-1.18,2.19c1.2,2.84,2.6,5.82,4.32,9,.78-.39,1.91.22,2.5,1.37,5.72-3.25,15.91-4.23,23.71-7.56a2.43,2.43,0,0,1,1-2.72h0c-1.19-2.83-2.58-5.8-4.28-9ZM237.75,168.8a4.5,4.5,0,0,1-5.34-2.58c-.67-1.94.79-3.8,3.15-4.31s4.68.52,5.31,2.44S240.07,168.27,237.75,168.8Z" style="opacity:0.2;isolation:isolate"></path><g style="opacity:0.2;isolation:isolate"><path d="M237.68,167.08c.06.17.11.34.16.51l-.46.11c0-.17-.11-.34-.16-.51a3.15,3.15,0,0,1-1.5-.08c0-.18.07-.35.11-.52a2.48,2.48,0,0,0,1.23.1c-.09-.3-.19-.6-.29-.91-.66,0-1.39,0-1.59-.65-.15-.46.14-.95,1-1.21-.06-.17-.11-.34-.17-.51l.47-.1c0,.17.1.34.16.51a3,3,0,0,1,1.23,0l-.09.51a3,3,0,0,0-1,0c.1.3.2.61.29.92.67,0,1.4,0,1.6.62C238.84,166.31,238.54,166.81,237.68,167.08Zm-1.08-1.85c-.09-.27-.17-.54-.26-.81-.38.14-.5.34-.44.54S236.25,165.22,236.6,165.23Zm1.38.82c-.07-.22-.35-.27-.71-.27.08.27.17.54.25.8C237.92,166.44,238,166.25,238,166.05Z"></path></g><path d="M325.93,103.72c-10.38,3.5-20.59,7.83-28.32,14.58-2.74-4.06-5.56-8.19-8.13-12.52C298.13,99.17,308.22,95,317.8,91.2,320.54,95.26,323.36,99.39,325.93,103.72Z" style="fill:#C53F3F"></path><path d="M325.93,103.72c-10.38,3.5-20.59,7.83-28.32,14.58-2.74-4.06-5.56-8.19-8.13-12.52C298.13,99.17,308.22,95,317.8,91.2,320.54,95.26,323.36,99.39,325.93,103.72Z" style="fill:#fff;opacity:0.5;isolation:isolate"></path><path d="M318.6,93.79a2.6,2.6,0,0,1-3-.91c-7.94,3.21-16.1,6.76-23.38,11.85a2.35,2.35,0,0,1-.63,3c1.64,2.65,3.35,5.23,5.06,7.78a1.78,1.78,0,0,1,2.67.41c6.74-5.2,15-8.86,23.4-11.89a1.63,1.63,0,0,1,.95-2.45h0c-1.64-2.64-3.36-5.22-5.06-7.77Zm-9.76,13.15a4.56,4.56,0,0,1-5.9-1.44,3.8,3.8,0,0,1,1.7-5.42,4.71,4.71,0,0,1,6,1.61A3.65,3.65,0,0,1,308.84,106.94Z" style="opacity:0.2;isolation:isolate"></path><g style="opacity:0.2;isolation:isolate"><path d="M308.26,105.14l.31.51-.42.2-.31-.5a2.82,2.82,0,0,1-1.47.25c0-.19,0-.39-.05-.58a2.41,2.41,0,0,0,1.22-.16c-.18-.31-.37-.61-.56-.91-.64.16-1.34.3-1.72-.33-.29-.46-.16-1.06.59-1.52l-.32-.52.42-.2.31.5a2.74,2.74,0,0,1,1.2-.22c0,.18.05.37.08.56a2.73,2.73,0,0,0-1,.15l.56.92c.64-.15,1.36-.29,1.75.34C309.15,104.09,309,104.67,308.26,105.14Zm-1.61-1.74-.5-.81c-.33.23-.38.47-.26.67S306.3,103.47,306.65,103.4Zm1.59.58c-.14-.22-.43-.21-.78-.14l.49.8C308.29,104.41,308.36,104.18,308.24,104Z"></path></g><path d="M143.18,210.33c-7.56-7.88-19.85-7.14-27.41-15q3.57-6.52,7.15-13.05c7.56,7.88,19.85,7.15,27.41,15Q146.76,203.81,143.18,210.33Z" style="fill:#C53F3F"></path><path d="M143.18,210.33c-7.56-7.88-19.85-7.14-27.41-15q3.57-6.52,7.15-13.05c7.56,7.88,19.85,7.15,27.41,15Q146.76,203.81,143.18,210.33Z" style="fill:#fff;opacity:0.5;isolation:isolate"></path><path d="M148.4,199.16a2.69,2.69,0,0,1-.6-3.13c-6.84-5.3-16.28-5.85-23.12-11.16a1.56,1.56,0,0,1-2.54.42l-4.45,8.14a2.69,2.69,0,0,1,.59,3.12c6.84,5.31,16.28,5.86,23.12,11.17a1.56,1.56,0,0,1,2.54-.43h0l4.45-8.13Zm-17.4.5a3.49,3.49,0,0,1-1.93-5.1A5,5,0,0,1,135,192.4a3.47,3.47,0,0,1,1.94,5.08A5,5,0,0,1,131,199.66Z" style="opacity:0.2;isolation:isolate"></path><g style="opacity:0.2;isolation:isolate"><path d="M132.35,198.11c-.09.18-.19.36-.29.54l-.43-.16.29-.53a2.16,2.16,0,0,1-1.06-.86l.5-.4a1.9,1.9,0,0,0,.85.74c.17-.32.35-.64.53-1-.51-.34-1-.74-.67-1.41a1.43,1.43,0,0,1,1.74-.55l.3-.55.43.16-.3.53a2.05,2.05,0,0,1,.9.68l-.48.4a2.09,2.09,0,0,0-.7-.56l-.53,1c.51.34,1,.74.68,1.41A1.46,1.46,0,0,1,132.35,198.11Zm.7-2.21.47-.86c-.4-.08-.65,0-.76.25S132.8,195.7,133.05,195.9Zm.37,1.46c.13-.24,0-.43-.31-.63l-.47.85C133.05,197.67,133.3,197.56,133.42,197.36Z"></path></g><path d="M390.53,170.24c-7.14,8.62-19.44,4-26.58,10.89-2.61-4.73-5.22-9.28-7.83-13.5,7.14-8.62,19.44-4,26.58-10.89C385.31,161.47,387.92,166,390.53,170.24Z" style="fill:#C53F3F"></path><path d="M390.53,170.24c-7.14,8.62-19.44,4-26.58,10.89-2.61-4.73-5.22-9.28-7.83-13.5,7.14-8.62,19.44-4,26.58-10.89C385.31,161.47,387.92,166,390.53,170.24Z" style="fill:#fff;opacity:0.5;isolation:isolate"></path><path d="M383.62,159.91c-.79.71-2,.28-2.56-.81-6.55,4.22-15.95,1.93-22.49,7.25a2.66,2.66,0,0,1-.43,3.13c1.62,2.73,3.25,5.57,4.88,8.49.79-.71,2-.28,2.56.8,6.54-4.22,15.94-1.93,22.49-7.24a2.63,2.63,0,0,1,.43-3.12l0,0c-1.63-2.72-3.26-5.57-4.88-8.49Zm-8.41,12.94c-2.14.29-4.81-1.26-6-3.51s-.48-4.44,1.65-4.74,4.82,1.27,6,3.52S377.35,172.55,375.21,172.85Z" style="opacity:0.2;isolation:isolate"></path><g style="opacity:0.2;isolation:isolate"><path d="M374.6,170.86l.32.61-.41.06-.33-.61a2.92,2.92,0,0,1-1.49-.27l-.06-.59a2.58,2.58,0,0,0,1.24.27l-.57-1.09a2,2,0,0,1-1.76-.94.81.81,0,0,1,.58-1.29l-.33-.62.42-.06.32.61a2.86,2.86,0,0,1,1.22.18c0,.2.05.39.08.58a2.68,2.68,0,0,0-1-.17l.59,1.1a2,2,0,0,1,1.76.93A.82.82,0,0,1,374.6,170.86ZM373,168.58l-.52-1c-.33.12-.38.34-.25.58A.93.93,0,0,0,373,168.58Zm1.62,1.12a1,1,0,0,0-.79-.41l.51,1C374.63,170.15,374.69,169.94,374.57,169.7Z"></path></g></g><g id="freepik--banknotes-1--inject-53"><path d="M347,237.52A537.08,537.08,0,0,1,235.08,384.4l-69.91-53.28a536.88,536.88,0,0,0,112-146.88Z" style="fill:#C53F3F"></path><path d="M347,237.52q-3.52,6.81-7.26,13.5A536.65,536.65,0,0,1,235.08,384.4l-69.91-53.28a536.88,536.88,0,0,0,112-146.88Z" style="fill:#fff;opacity:0.2;isolation:isolate"></path><path d="M288.1,198.47a10,10,0,0,1-15.28,3.32A537,537,0,0,1,180.88,322.4a9.94,9.94,0,0,1,.85,15.6l43.57,33.21a14.51,14.51,0,0,1,18.18-1.1A536.71,536.71,0,0,0,335.42,249.5c-5.25-4-6.86-11.94-3.75-17.82l.05-.09-43.58-33.21Zm-8,105.53c-8.23,10.77-24.08,12.5-34.81,4.32s-12.33-23.2-4.09-34,23.17-13.2,33.92-5S288.39,293.23,280.14,304Z" style="opacity:0.2;isolation:isolate"></path><g style="opacity:0.2;isolation:isolate"><path d="M272.62,295l2.89,2.2-1.62,2.12L271,297.11c-2.09,2.42-4.82,4.22-7,4.66l-1.7-3.13a12.37,12.37,0,0,0,5.95-3.65l-5.16-3.93c-2.88,2.34-6.21,4.68-9.79,1.94-2.63-2-3.42-5.63-.72-9.95l-2.91-2.22c.54-.7,1.08-1.41,1.61-2.12l2.86,2.18a14.29,14.29,0,0,1,5.53-4.09l1.81,3.06a13.44,13.44,0,0,0-4.55,3.15l5.2,4c2.88-2.35,6.12-4.83,9.7-2.1C274.45,286.88,275.29,290.58,272.62,295ZM260,288.69l-4.59-3.5c-1.12,2.05-.8,3.53.34,4.39S258.39,289.85,260,288.69Zm9.6-.29c-1.26-1-2.71-.27-4.33,1l4.56,3.48C271,290.72,270.69,289.25,269.58,288.4Z"></path></g><path d="M339.77,251A536.65,536.65,0,0,1,235.08,384.4s-29.62-45.19-41.91-53.59C193.17,330.81,288.59,295.4,339.77,251Z" style="opacity:0.2;isolation:isolate"></path><path d="M413.76,311.07a537.21,537.21,0,0,1-157.42,96.57l-46-74.92a537,537,0,0,0,157.41-96.57Q390.77,273.62,413.76,311.07Z" style="fill:#C53F3F"></path><path d="M413.76,311.07a537.21,537.21,0,0,1-157.42,96.57l-19.87-32.38h0q-13-21.25-26.09-42.53a537,537,0,0,0,157.41-96.57Q390.77,273.62,413.76,311.07Z" style="fill:#fff;opacity:0.30000000000000004;isolation:isolate"></path><path d="M372.89,253.38A9.94,9.94,0,0,1,357.45,251a537.25,537.25,0,0,1-129.28,79.3,9.93,9.93,0,0,1-4.84,14.85L252,391.81a14.51,14.51,0,0,1,17.35,5.54,536.61,536.61,0,0,0,129.28-79.3c-3.46-5.62-2.09-13.61,2.93-18l.08-.07L373,253.31Zm-45.5,95.54c-11.57,7.08-27,3-34-8.53s-3.12-26.09,8.45-33.16,26.37-4,33.44,7.57S339,341.86,327.39,348.92Z" style="opacity:0.2;isolation:isolate"></path><g style="opacity:0.2;isolation:isolate"><path d="M323.63,337.79l1.9,3.1-2.28,1.39c-.62-1-1.25-2-1.88-3.06-2.82,1.49-6,2.19-8.23,1.81-.15-1.18-.3-2.36-.46-3.54a12.36,12.36,0,0,0,6.86-1.26q-1.69-2.76-3.38-5.52c-3.54,1.14-7.48,2.11-9.84-1.73-1.73-2.82-1.16-6.49,2.92-9.54l-1.91-3.12,2.27-1.4,1.88,3.07a14.32,14.32,0,0,1,6.63-1.82c.2,1.17.39,2.34.59,3.5a13.79,13.79,0,0,0-5.39,1.3l3.42,5.58c3.54-1.15,7.45-2.29,9.8,1.54C328.26,330.91,327.7,334.66,323.63,337.79Zm-9.52-10.42q-1.51-2.46-3-4.92c-1.79,1.51-2,3-1.27,4.22S312.21,327.88,314.11,327.37Zm9.05,3.2c-.83-1.36-2.43-1.23-4.38-.68l3,4.89C323.62,333.23,323.89,331.75,323.16,330.57Z"></path></g><path d="M413.76,311.07a537.21,537.21,0,0,1-157.42,96.57l-19.87-32.38h0L233,325.09S343.3,333.05,413.76,311.07Z" style="opacity:0.2;isolation:isolate"></path><path d="M427.1,408.17A537.32,537.32,0,0,1,242.74,419q-2.56-43.87-5.14-87.75A536.81,536.81,0,0,0,422,320.42Q424.53,364.3,427.1,408.17Z" style="fill:#C53F3F"></path><path d="M427.1,408.17A537.32,537.32,0,0,1,242.74,419q-2.56-43.87-5.14-87.75A536.81,536.81,0,0,0,422,320.42Q424.53,364.3,427.1,408.17Z" style="fill:#fff;opacity:0.4;isolation:isolate"></path><path d="M418.32,338a10,10,0,0,1-12.47-9.43,536.79,536.79,0,0,1-151.4,8.85,9.94,9.94,0,0,1-11.28,10.81q1.61,27.35,3.2,54.7A14.49,14.49,0,0,1,259.05,416a536.79,536.79,0,0,0,151.4-8.85c-.39-6.59,4.59-13,11.08-14.46l.1,0L418.42,338ZM333.1,400.75c-13.54.77-25.18-10.12-26-23.59s9.57-24.47,23.11-25.24,25.11,9,25.9,22.47S346.63,400,333.1,400.75Z" style="opacity:0.2;isolation:isolate"></path><g style="opacity:0.2;isolation:isolate"><path d="M335,389.16l.21,3.62-2.66.16-.21-3.59a14.14,14.14,0,0,1-8.12-2.29c.43-1.11.85-2.22,1.27-3.33a12.47,12.47,0,0,0,6.64,2.13q-.18-3.24-.38-6.47c-3.65-.67-7.59-1.67-7.85-6.17-.19-3.3,2.05-6.26,7.08-7l-.21-3.65,2.66-.16.21,3.59a14,14,0,0,1,6.7,1.53l-1.14,3.36a13.65,13.65,0,0,0-5.36-1.4l.39,6.54c3.65.65,7.64,1.49,7.91,6C342.37,385.28,340.11,388.33,335,389.16Zm-3.47-13.69q-.18-2.87-.34-5.75c-2.29.48-3.19,1.69-3.11,3.12S329.65,375,331.57,375.47Zm6.47,7.1c-.09-1.58-1.56-2.23-3.54-2.66l.33,5.73C337.18,385.13,338.12,384,338,382.57Z"></path></g></g><g id="freepik--Character--inject-53"><path d="M283.44,408.26q.39,4.49.93,9.13H74.07c6.58-55.59,0-79.69,0-79.69,70.28-5.29,210.3,0,210.3,0s-4.23,26.78-1.38,65.13Q283.19,405.5,283.44,408.26Z" style="fill:#C53F3F"></path><path d="M284.37,337.7c-9.21,4.3-54.26,4.91-80.18,3.3s-59.84,3.3-59.84,3.3c-19.64-6.78-70.28-6.6-70.28-6.6C144.35,332.41,284.37,337.7,284.37,337.7Z" style="fill:#fff;opacity:0.2;isolation:isolate"></path><path d="M74.07,417.39c6.58-55.59,0-79.69,0-79.69s41.69-.91,70.28,6.6c0,0,1,8.48,0,12.84,0,0,34.39-5.58,65-4.84,0,0-47.38,5.45-65,9.5,0,0-28.34-4.42-46.27-4.66,0,0,37.28,4.85,46.27,7.75,0,0,10.66-1.94,16.24-1.94,0,0-13.35,2.43-16.24,4.6v15.36s-29.76.59-44.69-1.54c7.09,1.11,36,5.56,44.69,5.56,0,0,32.84-1.21,51.91,0,0,0-43.45,2.5-51.91,4.52h-37.3l37.3,3.13v3.11h16l-16,2.76s-46.27-2.94-59.58,0c0,0,54.61,2.48,59.52,4.41l.06,4.6s61.24-8.09,115.4-1.13c0,0-79.09-3.14-115.4,5.66,0,0,113.61-2.47,140,3.4Z" style="opacity:0.2;isolation:isolate"></path><path d="M75.3,344.3l-5.55,1.94s33.43,1.15,55,4.45C124.73,350.69,91.5,344.78,75.3,344.3Z" style="fill:#C53F3F"></path><path d="M149.22,350.69l8.46,1.61s39.39-4.28,85.95-4.8C243.63,347.5,176.38,344.24,149.22,350.69Z" style="fill:#fff;opacity:0.2;isolation:isolate"></path><path d="M175.91,359.74s23.62-6.44,44.33-6.12,60.13-2.93,60.13-2.93l1.55,2.93s-30.91,1.81-56.42,1.6A280.15,280.15,0,0,0,175.91,359.74Z" style="fill:#fff;opacity:0.2;isolation:isolate"></path><path d="M152.47,369.37s28.16-6,55.77-5.45,62.38,2.71,62.38,2.71-75.46,0-94.71,4Z" style="fill:#fff;opacity:0.2;isolation:isolate"></path><path d="M201.18,360.65s24.25-2,45.18-.91,42.91,2.07,42.91,2.07l-7.35,2.08S231.53,358.84,201.18,360.65Z" style="fill:#C53F3F"></path><path d="M201.18,360.65s24.25-2,45.18-.91,42.91,2.07,42.91,2.07l-7.35,2.08S231.53,358.84,201.18,360.65Z" style="opacity:0.2;isolation:isolate"></path><path d="M153.38,374.46s42-.52,62.23-1.53,47.36,4.6,47.36,4.6-33.47-.71-43.83.93Z" style="opacity:0.2;isolation:isolate"></path><polygon points="149.22 380.82 175.91 378.46 232.77 380.82 175.18 383.18 149.22 380.82" style="fill:#fff;opacity:0.2;isolation:isolate"></polygon><path d="M169.18,393.35s38.81-3.62,53.93-3.81,55.81-2.91,55.81-2.91l-4.52,6S197.89,391,169.18,393.35Z" style="fill:#fff;opacity:0.2;isolation:isolate"></path><path d="M267.59,372.93l14.33,1.35,3.9-1.35A97.9,97.9,0,0,0,267.59,372.93Z" style="fill:#C53F3F"></path><path d="M283.73,342.68l5.54.89-5.95,3.11-35-.74S274.56,345.59,283.73,342.68Z" style="fill:#C53F3F"></path><path d="M267.59,372.93l14.33,1.35,3.9-1.35A97.9,97.9,0,0,0,267.59,372.93Z" style="fill:#fff;opacity:0.2;isolation:isolate"></path><path d="M283.73,342.68l5.54.89-5.95,3.11-35-.74S274.56,345.59,283.73,342.68Z" style="opacity:0.2;isolation:isolate"></path><path d="M283.44,408.26c-9.4-.61-75.27-8.89-75.27-8.89,4.39-.51,61.89,2.89,74.82,3.46Q283.19,405.5,283.44,408.26Z" style="opacity:0.2;isolation:isolate"></path><path d="M184.26,398.24s61.59-.16,79.21,1.11,19.2-1.11,19.2-1.11l8.78,4.23s.45,4.2-22.66,1.27S184.26,398.24,184.26,398.24Z" style="fill:#C53F3F"></path><path d="M133.94,367.27s-36.07-5.72-57.1-4.26a20.43,20.43,0,0,1,8.59,4.26Z" style="fill:#C53F3F"></path><path d="M76.8,382.91c.82-.09,27,3.36,37,3.72l-40.7,1.64Z" style="fill:#C53F3F"></path><polygon points="75.32 405.53 114.86 406.93 69.75 410.27 75.32 405.53" style="fill:#C53F3F"></polygon><path d="M147.36,335s56.16,9.6,88.73-28.83l61.36,15.75s-11.29,23.42-96.09,20.31S147.36,335,147.36,335Z" style="fill:#C53F3F"></path><path d="M147.36,335s56.16,9.6,88.73-28.83l61.36,15.75s-11.29,23.42-96.09,20.31S147.36,335,147.36,335Z" style="fill:#fff;opacity:0.5;isolation:isolate"></path><path d="M179.43,337.07s34.33-1.81,53.74-23.77a9.3,9.3,0,0,0,10-3.06l44.79,11.87s-4.82,1.69-3.13,7.27C284.79,329.38,226,353.2,179.43,337.07Z" style="opacity:0.2;isolation:isolate"></path><g id="freepik--group--inject-53"><path d="M230.67,225.69l1.05-5.57s-2.17-2.06-1.92-4,9.91-5,11.62-5.17,1.06,6.83.54,8.1-6.32,2.8-6.32,2.8l-.73,5.87Z" style="fill:#ebb376"></path><path d="M119.3,253.07l-3.83-4.18s.75-2.89-.47-4.37-11.07.95-12.59,1.74,2.7,6.36,3.82,7.16,6.84-1,6.84-1l3.72,4.61Z" style="fill:#ebb376"></path><path d="M195.47,244.09c10.77-.6,20.53,1.65,25.54,0s9.87-22.49,9.87-22.49l5.27,1.78s-2,21.69-10.66,27.5-28.73,5.76-28.73,5.76Z" style="fill:#C53F3F"></path><path d="M236.15,223.38s-2,21.69-10.66,27.5c-5,3.3-13.57,4.71-20.08,5.32-4.93.45-8.65.44-8.65.44l-.6-5.86-.69-6.69c10.77-.6,20.53,1.65,25.54,0s9.87-22.49,9.87-22.49Z" style="fill:#fff;opacity:0.7000000000000001;isolation:isolate"></path><path d="M205.41,256.2c-4.93.45-8.65.44-8.65.44l-.6-5.86A33.78,33.78,0,0,1,205.41,256.2Z" style="opacity:0.2;isolation:isolate"></path><polygon points="264.32 412.55 271.29 410.64 270.04 393.62 263.08 395.54 264.32 412.55" style="fill:#b97964"></polygon><path d="M271.72,409.71l-8.1.56a.52.52,0,0,0-.5.53h0l.05,6.43a1.28,1.28,0,0,0,1.35,1.19c2.82-.24,4.16-.5,7.72-.77a67,67,0,0,0,9.47-1c3-.69,2.2-3.59.88-3.56A19.76,19.76,0,0,1,273,410,2.06,2.06,0,0,0,271.72,409.71Z" style="fill:#263238"></path><path d="M274.36,410.76a9,9,0,0,1-1.94-.12.17.17,0,0,1-.14-.12.23.23,0,0,1,.05-.18c.22-.18,2.17-1.71,3.08-1.43a.63.63,0,0,1,.42.45.89.89,0,0,1-.14.95A2,2,0,0,1,274.36,410.76Zm.95-1.5c-.48-.15-1.64.54-2.44,1.13,1.31.16,2.25.06,2.57-.3a.63.63,0,0,0,.08-.61.35.35,0,0,0-.21-.22Z" style="fill:#263238"></path><path d="M272.45,410.64a.08.08,0,0,1-.07,0,.2.2,0,0,1-.1-.12c0-.07-.31-2.15.36-2.91a.89.89,0,0,1,.7-.28.66.66,0,0,1,.65.46c.21.78-.76,2.36-1.44,2.83A.12.12,0,0,1,272.45,410.64Zm.8-2.94a.47.47,0,0,0-.35.18,3.67,3.67,0,0,0-.31,2.31,3.51,3.51,0,0,0,1.07-2.27c0-.1-.09-.21-.33-.22Z" style="fill:#263238"></path><polygon points="263.08 395.54 270.05 393.63 270.76 403.36 263.75 404.92 263.08 395.54" style="opacity:0.2;isolation:isolate"></polygon><polygon points="255.2 412.3 248.61 415.31 246.94 408.23 244.69 398.71 251.25 395.7 253.51 405.21 255.2 412.3" style="fill:#b97964"></polygon><polygon points="253.51 405.21 246.94 408.23 244.69 398.71 251.25 395.7 253.51 405.21" style="opacity:0.2;isolation:isolate"></polygon><path d="M255.47,411.32l-7.9,1.85a.51.51,0,0,0-.41.59h0l1.08,6.35a1.27,1.27,0,0,0,1.51,1c2.75-.69,4-1.16,7.5-2a66.33,66.33,0,0,0,9.2-2.44c2.81-1.15,1.6-3.89.31-3.65-3.06.55-7.64-.45-10-1.54A2,2,0,0,0,255.47,411.32Z" style="fill:#263238"></path><path d="M258.25,411.94a9,9,0,0,1-1.94.18.15.15,0,0,1-.16-.09.19.19,0,0,1,0-.18c.19-.21,1.86-2,2.81-1.91a.64.64,0,0,1,.48.38.9.9,0,0,1,0,1A2,2,0,0,1,258.25,411.94Zm.7-1.63c-.51-.08-1.54.79-2.24,1.5,1.32-.05,2.24-.3,2.49-.7a.6.6,0,0,0,0-.62.28.28,0,0,0-.23-.18Z" style="fill:#263238"></path><path d="M256.34,412.12a.07.07,0,0,1-.06,0,.19.19,0,0,1-.12-.11c0-.06-.66-2.08-.11-2.93a.88.88,0,0,1,.64-.39.65.65,0,0,1,.72.36c.33.73-.37,2.45-1,3A.09.09,0,0,1,256.34,412.12Zm.32-3a.54.54,0,0,0-.32.23,3.77,3.77,0,0,0,.06,2.34,3.56,3.56,0,0,0,.71-2.41c0-.1-.13-.2-.37-.17Z" style="fill:#263238"></path><path d="M206.37,315.65l-2.13-23.52-39.27.92s-4.65,32.77-1.27,38.79c6,10.75,45.62,4.65,54.88,5.56,3.78,2,24,69.07,24,69.07l11.33-4.57s-12.18-56.59-15-67.25C235.1,319.83,219.38,320.09,206.37,315.65Z" style="fill:#263238"></path><path d="M271.45,400.74l-10,.92S249.2,339.27,248.25,339c-1.7-.49-6.67-1.05-9.34-1.75-18.54-4.82-64.2-13.69-64.2-13.69l16.84-16.22s76.34,9.16,78,27.08C270.4,343,271.45,400.74,271.45,400.74Z" style="fill:#263238"></path><path d="M245.56,339.05c-1.71-.49-4-1.09-6.65-1.79.74.39-1.4-9.32-3.54-11.83-4.25-5-21.31-7.72-27.42-8.7-5.12-.82-22.28-2.33-22.28-2.33s30.3-2.62,53.13,3.65C250.09,321.15,248.08,332.17,245.56,339.05Z" style="opacity:0.2;isolation:isolate"></path><path d="M159.73,249.8s14.49-7.69,35.74-5.71c0,0,7.37,18.74,8.77,48l-39.51,2.74S165.44,269.75,159.73,249.8Z" style="fill:#C53F3F"></path><path d="M164.73,294.87a197.17,197.17,0,0,0-.76-20.46c-.35-4-.85-8.21-1.57-12.5a110,110,0,0,0-2.67-12.11s14.49-7.69,35.74-5.71c0,0,7.37,18.74,8.77,48Z" style="fill:#fff;opacity:0.7000000000000001;isolation:isolate"></path><path d="M164,274.41c-.35-4-.85-8.21-1.57-12.5a7.05,7.05,0,0,1,2.48-1.63l.05-.44C164.93,260.32,167,267.71,164,274.41Z" style="opacity:0.2;isolation:isolate"></path><path d="M170.68,247.08c3.62,3.29,12.48,2.07,12.48,2.07s5.53-1.51,4.37-3.24c-3.26-.54-4.83-2.06-5.49-4a9.74,9.74,0,0,1-.33-3.73c0-.68.16-1.38.28-2.07L171,228C172.47,233.35,174.23,243.2,170.68,247.08Z" style="fill:#ebb376"></path><path d="M173.56,233.15c.44,6.57,5.84,8.39,8.48,8.76a9.74,9.74,0,0,1-.33-3.73Z" style="opacity:0.2;isolation:isolate"></path><path d="M180.51,205.46c4.07,1.1,7.46,10.49,4.41,16.7S172.68,211,172.68,211,177.88,204.76,180.51,205.46Z" style="fill:#263238"></path><path d="M189,227a10.85,10.85,0,0,1,0,1.14,10.73,10.73,0,0,1-3.06,7.23,9.83,9.83,0,0,1-6.43,3,9.61,9.61,0,0,1-5-1.12c-4.86-2.47-6.17-6.75-9-13.81A10.38,10.38,0,0,1,175.87,209C183.87,209.59,188.38,220,189,227Z" style="fill:#ebb376"></path><path d="M177.12,221.79c.15.59.65,1,1,.83s.54-.71.35-1.29-.67-1-1-.83S176.93,221.19,177.12,221.79Z" style="fill:#263238"></path><path d="M183.75,219.61c.15.59.66.95,1,.83s.54-.71.35-1.3-.66-.95-1-.83S183.57,219.05,183.75,219.61Z" style="fill:#263238"></path><path d="M181.74,220.59a22.23,22.23,0,0,0,4.45,4.1,3.56,3.56,0,0,1-2.65,1.45Z" style="fill:#d58745"></path><path d="M185.28,216a.42.42,0,0,1-.37.11,2.9,2.9,0,0,0-2.56.52.36.36,0,0,1-.5-.52h0a3.62,3.62,0,0,1,3.23-.7.36.36,0,0,1,.28.43h0A.8.8,0,0,1,185.28,216Z" style="fill:#263238"></path><path d="M174.93,219.57a.3.3,0,0,1-.21,0,.36.36,0,0,1-.13-.49h0a3.63,3.63,0,0,1,2.8-1.78.36.36,0,0,1,.37.35h0a.37.37,0,0,1-.35.37h0a2.93,2.93,0,0,0-2.19,1.45A.38.38,0,0,1,174.93,219.57Z" style="fill:#263238"></path><path d="M167.85,212.64l1.57,3a2.49,2.49,0,0,0,0,3.38c2,2.24,2.08,6.88.68,9.28,0,0-.49-1.11-1.35-.48s1.68,6.46,4.63,8.57c0,0-3.81-1.47-7.79-7.08-3.68-5.18-5.7-9.91-5.37-12.59Z" style="fill:#263238"></path><path d="M164.32,230.31a7.2,7.2,0,0,0,5.06,2.18c2.54,0,3.14-2.41,1.88-4.46-1.13-1.81-3.82-4.06-6.09-3.07S162.7,228.61,164.32,230.31Z" style="fill:#ebb376"></path><path d="M184.32,228.65a23.11,23.11,0,0,0-1.16,3.11l-.58-.07c-2.62-.35-3.73-1.38-4.15-2.42a3.46,3.46,0,0,1-.21-1.6,3.09,3.09,0,0,1,.2-.91,12.42,12.42,0,0,0,5,1.76C184,228.62,184.32,228.65,184.32,228.65Z" style="fill:#263238"></path><path d="M183.43,228.52l-.37.91c-2.47-.34-4.17-.91-4.84-1.76a3.09,3.09,0,0,1,.2-.91A12.42,12.42,0,0,0,183.43,228.52Z" style="fill:#fff"></path><path d="M182.58,231.69c-2.62-.35-3.73-1.38-4.15-2.42a8.71,8.71,0,0,1,2.84,1A3.19,3.19,0,0,1,182.58,231.69Z" style="fill:#de5753"></path><path d="M174.54,213.16s-.7-4.78,2.32-3.85,3.23-.89,2.33-4.58-9.56-5-14.46,1.05-6.61,11.12-4.24,13.8,11.4-5.23,11.4-5.23a8.41,8.41,0,0,1,1.67-3.7A4.39,4.39,0,0,0,174.54,213.16Z" style="fill:#263238"></path><path d="M179.21,248.77,184,253s2.63,17.8,9.09,25.58h4l.79-2.76a56.36,56.36,0,0,1-12.58-23.48v-5.67Z" style="fill:#263238"></path><polygon points="171.9 243.23 181.74 246.92 182.58 241.91 187.69 243.76 189 250.09 182.04 248.37 178.59 252.99 168.56 246.5 171.9 243.23" style="fill:#C53F3F"></polygon><polygon points="171.9 243.23 181.74 246.92 182.58 241.91 187.69 243.76 189 250.09 182.04 248.37 178.59 252.99 168.56 246.5 171.9 243.23" style="fill:#fff;opacity:0.5;isolation:isolate"></polygon><polygon points="164.17 294.21 204.7 290.36 204.79 295.28 164.19 298.6 164.17 294.21"></polygon><path d="M196.12,291.37a1.75,1.75,0,0,0-1.36-.44l-3.59.37a1.78,1.78,0,0,0-1.6,1.8l0,2.3a1.79,1.79,0,0,0,1.82,1.75h.15l3.59-.38a1.77,1.77,0,0,0,1.59-1.8l0-2.29A1.75,1.75,0,0,0,196.12,291.37Zm-1.05,4.48-3.58.38a.88.88,0,0,1-1-.85l0-2.29a.87.87,0,0,1,.78-.88l3.58-.37h.08a.87.87,0,0,1,.87.85V293h-.14l-1,.09a.61.61,0,0,0,.11,1.22l1-.1h.05V295A.86.86,0,0,1,195.07,295.85Z" style="fill:#fff"></path><path d="M159.73,249.8c-6.76,4-16.52,17.17-19.95,16.9S117.85,250,117.85,250l-4.22,4.57s17.09,20.41,25.05,21.95,25.49-13.22,25.49-13.22a10.89,10.89,0,0,0,0-7.91A12.38,12.38,0,0,0,159.73,249.8Z" style="fill:#C53F3F"></path><path d="M159.73,249.8c-6.76,4-16.52,17.17-19.95,16.9S117.85,250,117.85,250l-4.22,4.57s17.09,20.41,25.05,21.95,25.49-13.22,25.49-13.22a10.89,10.89,0,0,0,0-7.91A12.38,12.38,0,0,0,159.73,249.8Z" style="fill:#fff;opacity:0.7000000000000001;isolation:isolate"></path></g><path d="M221.61,342.76s-134.21.93-142.54-17.92l59.77-4.34a332.7,332.7,0,0,0,36.36,12.83C189,337.36,205.36,341.18,221.61,342.76Z" style="fill:#C53F3F"></path><path d="M221.61,342.76s-4.21,0-11.21,0c-28.71-2-62.23-16.26-62.23-16.26-12.1,2.66-20.42-2.11-20.42-2.11l-32.62,1.87a5.47,5.47,0,0,1-1.1,4.62c16.91,4.75,35.14,7.64,50,9.39-31.39-2.35-61.18-6.83-65-15.4l59.77-4.34S180.55,338.76,221.61,342.76Z" style="fill:#fff;opacity:0.2;isolation:isolate"></path><path d="M221.61,342.76s-134.21.93-142.54-17.92c0,0,45.35,19.59,96.13,8.49C189,337.36,205.36,341.18,221.61,342.76Z" style="opacity:0.2;isolation:isolate"></path></g></svg>