<svg xmlns="http://www.w3.org/2000/svg" viewBox="0 0 500 500"><g id="freepik--Shadow--inject-5"><ellipse id="freepik--path--inject-5" cx="250" cy="416.24" rx="193.89" ry="11.32" style="fill:#f5f5f5"></ellipse></g><g id="freepik--Device--inject-5"><rect x="256.03" y="104.87" width="173.6" height="312.25" rx="10.4" style="fill:#263238"></rect><path d="M423.77,115.33V406.1a4.25,4.25,0,0,1-4.31,4.25H265.74a3.81,3.81,0,0,1-3.86-3.9V115a3.44,3.44,0,0,1,3.31-3.57h38.43a2.7,2.7,0,0,1,2.47,1.73l1.59,3.92a2.71,2.71,0,0,0,2.48,1.71h65.42a2.68,2.68,0,0,0,2.48-1.68l1.59-3.94a2.71,2.71,0,0,1,2.47-1.74H420A3.88,3.88,0,0,1,423.77,115.33Z" style="fill:#C53F3F"></path><rect x="261.88" y="129.58" width="161.89" height="264.42" style="fill:#fff;opacity:0.30000000000000004;isolation:isolate"></rect><rect x="279.72" y="120.46" width="2" height="2.67" transform="translate(561.45 243.59) rotate(180)" style="fill:#fff;opacity:0.6000000000000001;isolation:isolate"></rect><rect x="276.47" y="119.57" width="2" height="3.56" transform="translate(554.93 242.7) rotate(180)" style="fill:#fff;opacity:0.6000000000000001;isolation:isolate"></rect><rect x="273.21" y="118.68" width="2" height="4.44" transform="translate(548.41 241.81) rotate(180)" style="fill:#fff;opacity:0.6000000000000001;isolation:isolate"></rect><rect x="269.95" y="117.8" width="2" height="5.33" transform="translate(541.9 240.92) rotate(180)" style="fill:#fff;opacity:0.6000000000000001;isolation:isolate"></rect><rect x="404.26" y="119.49" width="1.19" height="2.67" style="fill:#fff;opacity:0.6000000000000001;isolation:isolate"></rect><rect x="406.26" y="118.52" width="9.44" height="4.61" transform="translate(821.97 241.65) rotate(180)" style="fill:#fff;opacity:0.6000000000000001;isolation:isolate"></rect><rect x="264.15" y="154.08" width="157.35" height="86.65" rx="4.37" style="fill:#fff;opacity:0.4;isolation:isolate"></rect><rect x="300.3" y="156.36" width="85.05" height="82.1" rx="3.64" style="fill:#fff"></rect><path d="M287.49,199.62a5.49,5.49,0,1,1-5.49-5.49A5.49,5.49,0,0,1,287.49,199.62Z" style="fill:#263238"></path><path d="M285.28,199.62a3.29,3.29,0,1,1-3.28-3.29A3.29,3.29,0,0,1,285.28,199.62Z" style="opacity:0.2;isolation:isolate"></path><path d="M268.79,191.48l1.43-2.11s5.43.66,7.8-1.59H285l.33.27-7.85,6.08-7.21-1Z" style="fill:#263238"></path><polygon points="282 192.6 284.62 192.6 288.64 198.93 289.56 198.93 286.66 192.6 286.66 190.29 284.22 190.29 282 192.6" style="fill:#263238"></polygon><polygon points="264.15 185.41 264.29 185.89 264.15 186.53 264.15 185.41" style="fill:#263238"></polygon><path d="M265.48,181.88l-.6,1.09.94.45.25.68-.3.35,1,.76a.5.5,0,0,1-.34.68l-1.29-.68h-1v-2.34h.44l.54-1.19s-.44-1.08,1.44-1.83l.44.35v.94l-.59.54Z" style="fill:#263238"></path><polygon points="264.84 187.32 264.15 188.3 264.15 186.65 264.84 187.32" style="fill:#C53F3F"></polygon><path d="M288.64,188.64l-1.78,2.63-.2-.16-.52-.43-3.37,1.78-.3.14-6.82,3.16.46.57h3.56l.4.63-1.15,1.51-2.15,2.83-.85,1.12H264.15v-9.58a6.09,6.09,0,0,0,2.76,1.33.31.31,0,0,0,.17,0,.91.91,0,0,0,.19-.13l.05,0a.79.79,0,0,0,.12-.15.41.41,0,0,0,.05-.09.64.64,0,0,0,.06-.18,1.32,1.32,0,0,0-.21-.88l1.45-1.18h0c8.1.2,10.35-1.84,10.35-1.84l6.12-1.59h0Z" style="fill:#C53F3F"></path><polygon points="280.07 196.96 278.92 198.47 276.77 201.3 275.92 202.42 264.15 202.42 264.15 201.91 266.22 201.56 265.83 199.32 271.01 195.53 273.08 196.33 275.65 195.76 276.11 196.33 279.67 196.33 280.07 196.96" style="fill:#263238"></polygon><path d="M266.91,194.17a3.85,3.85,0,0,1-1,.37l-1.74-.87v-.83A6.09,6.09,0,0,0,266.91,194.17Z" style="fill:#263238"></path><polygon points="264.84 187.32 264.15 188.3 264.15 186.65 264.84 187.32" style="opacity:0.2;isolation:isolate"></polygon><path d="M269.78,193.12l-3.16,3.21-2.47-1.39v-2.1a6.09,6.09,0,0,0,2.76,1.33.31.31,0,0,0,.17,0,.91.91,0,0,0,.19-.13l.05,0a.79.79,0,0,0,.12-.15.41.41,0,0,0,.05-.09.64.64,0,0,0,.06-.18,1.32,1.32,0,0,0-.21-.88Z" style="opacity:0.2;isolation:isolate"></path><polygon points="288.64 188.64 286.86 191.27 286.66 191.11 286.14 190.68 282.77 192.46 282.47 192.6 275.65 195.76 276.11 196.33 279.67 196.33 280.07 196.96 278.92 198.47 276.77 201.3 275.92 202.42 264.15 202.42 264.15 195.65 267.01 197.18 270.91 194.6 274.83 195.1 276.9 194.06 278.72 193.13 284.11 190.41 284.34 190.29 285.78 189.56 288.64 188.64" style="opacity:0.2;isolation:isolate"></polygon><polygon points="312.51 198.83 371.86 198.83 370.67 188.2 353.57 184.54 337.68 187.31 318.54 189.19 313.79 194.63 312.51 198.83" style="fill:#263238"></polygon><polygon points="312.51 198.83 371.86 198.83 370.67 188.2 353.57 184.54 337.68 187.31 318.54 189.19 313.79 194.63 312.51 198.83" style="opacity:0.2;isolation:isolate"></polygon><path d="M329,198.83a6.28,6.28,0,1,1-6.28-6.28A6.28,6.28,0,0,1,329,198.83Z" style="fill:#263238"></path><circle cx="322.74" cy="198.83" r="4.2" style="opacity:0.2;isolation:isolate"></circle><path d="M370,198.83a6.28,6.28,0,1,1-6.28-6.28A6.28,6.28,0,0,1,370,198.83Z" style="fill:#263238"></path><circle cx="363.74" cy="198.83" r="4.2" style="opacity:0.2;isolation:isolate"></circle><path d="M375.91,193.24l-.69,4.91-3.86,1.22s-.1-8.3-8.5-8.3-7.32,9.89-7.32,9.89h-1.47l-2.77-1.19H333.16L331.58,201h-1.07s.89-9.89-7.77-9.89-7.56,9.89-7.56,9.89l-4.95-2.13-.49-5,2.07-1.29.5-3c.22-.17.45-.33.68-.48,5.79-3.88,13.71-4.4,13.71-4.4,6.81-6.93,9.57-7.91,9.57-7.91a191,191,0,0,1,30.54.59l4.55,5.83,1.07.87,1.11.91a24.69,24.69,0,0,1,.49,6.14Z" style="fill:#C53F3F"></path><path d="M317.29,189.38l-3.47,3.17h-2l.5-3c.22-.17.45-.33.68-.48l2.52-.38Z" style="fill:#fff;opacity:0.6000000000000001;isolation:isolate"></path><path d="M374,191.07l-1.26-.47a12,12,0,0,0-1.58-5.27l1.24-1.31,1.11.91A24.69,24.69,0,0,1,374,191.07Z" style="fill:#fff;opacity:0.6000000000000001;isolation:isolate"></path><path d="M371.36,183.15c-8.23,2-44.66,1.49-44.66,1.49l.62-.62a49.42,49.42,0,0,1,7.56-6.51,7.18,7.18,0,0,1,1.39-.78,191,191,0,0,1,30.54.59Z" style="fill:#263238"></path><path d="M336.58,177.51,330.64,184h-3.32a49.42,49.42,0,0,1,7.56-6.51Z" style="fill:#fff;opacity:0.6000000000000001;isolation:isolate"></path><polygon points="332.32 184.02 337.56 177.5 345.38 177.5 344.78 184.02 332.32 184.02" style="fill:#fff;opacity:0.6000000000000001;isolation:isolate"></polygon><path d="M346.66,184l.69-6.51h10.78l1.88,5.9S353.49,184,346.66,184Z" style="fill:#fff;opacity:0.6000000000000001;isolation:isolate"></path><path d="M359.4,177.51l2,5.74s6.33-.39,7.22-.79L366,178.88a2.81,2.81,0,0,0-1.94-1A34.65,34.65,0,0,0,359.4,177.51Z" style="fill:#fff;opacity:0.6000000000000001;isolation:isolate"></path><path d="M375.91,193.24l-.69,4.91-3.86,1.22s-.1-8.3-8.5-8.3-7.32,9.89-7.32,9.89h-1.47l-2.77-1.19H333.16L331.58,201h-1.07s.89-9.89-7.77-9.89-7.56,9.89-7.56,9.89l-4.95-2.13-.49-5h4.08a11.4,11.4,0,0,1,9.5-4.85c6.53,0,8.63,4.85,8.63,4.85h20.94s3.56-4.92,8.8-5.18A14,14,0,0,1,370,190.6h2.75l1.26.47Z" style="opacity:0.2;isolation:isolate"></path><path d="M421.5,187.67v13.42H401s1.36-4.59,2.42-7.71a12.42,12.42,0,0,1,1.14-2.84C407.29,189.06,413.65,188.17,421.5,187.67Z" style="fill:#263238"></path><path d="M421.5,187.67v13.42H401s1.36-4.59,2.42-7.71a12.42,12.42,0,0,1,1.14-2.84C407.29,189.06,413.65,188.17,421.5,187.67Z" style="opacity:0.2;isolation:isolate"></path><circle cx="412.4" cy="199.12" r="5.98" style="fill:#263238"></circle><circle cx="412.4" cy="199.12" r="5.29" style="fill:#fff;opacity:0.2;isolation:isolate"></circle><path d="M413.81,182c2.93-1.79,5.46-3.25,7.69-4.43v25.33h-1.95l-.33-1.77-.76-4.09a5.15,5.15,0,0,0-5.07-4.22H411a5.15,5.15,0,0,0-5,3.75l-1.29,4.56-.5,1.77-8.11-1.05,1-6.89.16-1.09,1.58-1.05,3.1-7.12,2.88-.9Z" style="fill:#C53F3F"></path><path d="M406.42,185.26l-3.81,6.46-3.69,1.06,3.1-7.12,2.88-.9C405.8,185,406.42,185.26,406.42,185.26Z" style="fill:#fff;opacity:0.7000000000000001;isolation:isolate"></path><path d="M421.5,179.3v3.86a31.77,31.77,0,0,1-5.94-.4S418.42,181.05,421.5,179.3Z" style="opacity:0.4;isolation:isolate"></path><path d="M421.5,195.08v7.78h-1.95l-.33-1.77-.76-4.09a5.15,5.15,0,0,0-5.07-4.22H411a5.15,5.15,0,0,0-5,3.75l-1.29,4.56-.5,1.77-8.11-1.05,1-6.89,6.09-1.78.18.24,1.14,1.51s2-3.83,8.78-3.83C418.78,191.06,420.88,193.93,421.5,195.08Z" style="opacity:0.2;isolation:isolate"></path><path d="M357.35,230.5h-29a4.72,4.72,0,0,1-4.72-4.73h0a4.72,4.72,0,0,1,4.72-4.72h29a4.72,4.72,0,0,1,4.72,4.72h0A4.73,4.73,0,0,1,357.35,230.5Z" style="fill:#C53F3F"></path><rect x="264.15" y="133.46" width="157.35" height="18.2" style="fill:#C53F3F"></rect><path d="M342.8,111.79a2.22,2.22,0,1,1-2.22-2.22A2.22,2.22,0,0,1,342.8,111.79Z" style="fill:#fff;opacity:0.6000000000000001;isolation:isolate"></path><path d="M347.3,111.79a1.43,1.43,0,1,1-1.43-1.42A1.43,1.43,0,0,1,347.3,111.79Z" style="fill:#fff;opacity:0.6000000000000001;isolation:isolate"></path><polygon points="293.89 195.64 298.76 202.13 298.76 189.14 293.89 195.64" style="opacity:0.2;isolation:isolate"></polygon><polygon points="391.76 195.64 386.89 189.14 386.89 202.13 391.76 195.64" style="opacity:0.2;isolation:isolate"></polygon><path d="M297.28,144.51l.42-.94a3.61,3.61,0,0,0,2.16.72c1,0,1.44-.37,1.44-.85,0-1.41-3.88-.49-3.88-2.91,0-1.06.84-2,2.63-2a4.17,4.17,0,0,1,2.18.58l-.39.95a3.57,3.57,0,0,0-1.8-.52c-1,0-1.42.39-1.42.89,0,1.39,3.88.49,3.88,2.88,0,1.05-.85,2-2.64,2A4.19,4.19,0,0,1,297.28,144.51Z" style="fill:#fff"></path><path d="M308.61,144.19v1H303.7v-6.53h4.78v1h-3.56v1.69h3.15v1h-3.15v1.81Z" style="fill:#fff"></path><path d="M310,138.67h1.21v5.51h3.42v1H310Z" style="fill:#fff"></path><path d="M320.46,144.19v1h-4.91v-6.53h4.78v1h-3.56v1.69h3.15v1h-3.15v1.81Z" style="fill:#fff"></path><path d="M321.32,141.94a3.53,3.53,0,0,1,6.08-2.27l-.78.73a2.3,2.3,0,0,0-1.75-.76,2.3,2.3,0,1,0,0,4.59,2.28,2.28,0,0,0,1.75-.77l.78.75a3.53,3.53,0,0,1-6.08-2.27Z" style="fill:#fff"></path><path d="M329.82,139.69h-2.16v-1h5.54v1H331v5.51h-1.22Z" style="fill:#fff"></path><path d="M339.52,142.9v2.3H338.3v-2.28l-2.57-4.25H337l1.92,3.18,1.93-3.18h1.2Z" style="fill:#fff"></path><path d="M342.12,141.94a3.52,3.52,0,1,1,3.52,3.36A3.35,3.35,0,0,1,342.12,141.94Zm5.82,0a2.3,2.3,0,1,0-2.3,2.29A2.23,2.23,0,0,0,347.94,141.94Z" style="fill:#fff"></path><path d="M350.4,142.36v-3.69h1.21v3.64c0,1.34.61,1.92,1.66,1.92s1.66-.58,1.66-1.92v-3.64h1.19v3.69a2.86,2.86,0,1,1-5.72,0Z" style="fill:#fff"></path><path d="M362.1,145.2l-1.34-1.91H359v1.9h-1.21v-6.53h2.69c1.72,0,2.78.87,2.78,2.32a2.1,2.1,0,0,1-1.39,2.07l1.5,2.14Zm-1.65-5.51H359v2.61h1.42c1.07,0,1.62-.49,1.62-1.31S361.52,139.69,360.45,139.69Z" style="fill:#fff"></path><path d="M371.5,145.2l-1.33-1.91h-1.73v1.9h-1.22v-6.53h2.69c1.72,0,2.79.87,2.79,2.32a2.11,2.11,0,0,1-1.4,2.07l1.51,2.14Zm-1.64-5.51h-1.42v2.61h1.42c1.06,0,1.61-.49,1.61-1.31S370.92,139.69,369.86,139.69Z" style="fill:#fff"></path><path d="M374.05,138.67h1.21v6.53h-1.21Z" style="fill:#fff"></path><path d="M377,138.67h2.86a3.28,3.28,0,1,1,0,6.53H377Zm2.8,5.51a2.25,2.25,0,1,0,0-4.49h-1.59v4.49Z" style="fill:#fff"></path><path d="M389.65,144.19v1h-4.91v-6.53h4.78v1H386v1.69h3.15v1H386v1.81Z" style="fill:#fff"></path><rect x="264.15" y="243.94" width="157.35" height="109.79" rx="5.04" style="fill:#fff;opacity:0.4;isolation:isolate"></rect><rect x="264.15" y="356.46" width="157.35" height="33.66" rx="2.19" style="fill:#fff;opacity:0.4;isolation:isolate"></rect><path d="M275.56,363.32v1.24h2v.64h-2v1.57h-.76v-4.09h3v.64Z" style="fill:#263238"></path><path d="M281.2,366.77l-.84-1.2h-1.08v1.19h-.76v-4.09h1.68c1.08,0,1.75.55,1.75,1.45a1.32,1.32,0,0,1-.88,1.3l.95,1.34Zm-1-3.45h-.89V365h.89c.67,0,1-.3,1-.82S280.84,363.32,280.17,363.32Z" style="fill:#263238"></path><path d="M282.5,364.72a2.2,2.2,0,1,1,2.2,2.11A2.09,2.09,0,0,1,282.5,364.72Zm3.64,0a1.44,1.44,0,1,0-1.44,1.44A1.4,1.4,0,0,0,286.14,364.72Z" style="fill:#263238"></path><path d="M291.46,366.77v-2.71l-1.35,2.24h-.34l-1.34-2.21v2.68h-.73v-4.09h.63l1.62,2.71,1.6-2.71h.62v4.09Z" style="fill:#263238"></path><path d="M275.63,379h-1.35v-.64h3.47V379h-1.36v3.45h-.76Z" style="fill:#263238"></path><path d="M278,380.38a2.2,2.2,0,1,1,2.2,2.11A2.09,2.09,0,0,1,278,380.38Zm3.64,0a1.44,1.44,0,1,0-1.44,1.44A1.4,1.4,0,0,0,281.61,380.38Z" style="fill:#263238"></path><path d="M404.69,359.61H301.88a5.45,5.45,0,0,0,0,10.89H404.69a5.45,5.45,0,0,0,0-10.89Z" style="fill:#fff"></path><path d="M404.69,375.27H301.88a5.44,5.44,0,1,0,0,10.88H404.69a5.44,5.44,0,0,0,0-10.88Z" style="fill:#fff"></path><path d="M421.5,280.33c-20.07,6.28-40.79,12.79-60.67,19.07L379,333.21l42.54,1.44v10L372.87,343l-21.75-40.54L324.23,311l19.55,42.74h-11l-18.16-39.68c-20.43,6.51-38,12.19-50.48,16.29V319.82c3.66-1.2,7.75-2.54,12.23-4,9.5-3.08,20.89-6.74,34.06-10.94L293.5,267.84l-29.35,9.33V266.68l25.16-8-6.74-14.74h11L320,301.83q15.63-5,34.14-10.81l21.41-6.75L357,243.94h11l17.18,37.3,36.29-11.39Z" style="fill:#C53F3F"></path><path d="M421.5,249v99.7a5,5,0,0,1-5,5.05H269.2a5,5,0,0,1-5.05-5.05V249a5,5,0,0,1,5.05-5H416.46A5,5,0,0,1,421.5,249Z" style="fill:#fff;opacity:0.4;isolation:isolate"></path><path d="M340.3,294.69a9.79,9.79,0,0,0-13.85,13.85l6.92,6.92,6.93-6.92A9.8,9.8,0,0,0,340.3,294.69Zm-3.46,10.39a4.9,4.9,0,1,1,0-6.93A4.91,4.91,0,0,1,336.84,305.08Z" style="fill:#C53F3F"></path></g><g id="freepik--Character--inject-5"><rect x="224.22" y="340.87" width="7.29" height="76.25" style="fill:#263238"></rect><rect x="224.22" y="340.87" width="7.29" height="76.25" style="opacity:0.2;isolation:isolate"></rect><rect x="276.41" y="340.87" width="7.29" height="76.25" style="fill:#263238"></rect><rect x="276.41" y="340.87" width="7.29" height="76.25" style="opacity:0.2;isolation:isolate"></rect><rect x="154.63" y="340.87" width="7.29" height="76.25" style="fill:#263238"></rect><rect x="102.44" y="340.87" width="7.29" height="76.25" style="fill:#263238"></rect><path d="M298.64,338.05v5.64a1.64,1.64,0,0,1-1.64,1.65H95.54a1.65,1.65,0,0,1-1.65-1.65v-5.64a1.65,1.65,0,0,1,1.65-1.65H297A1.64,1.64,0,0,1,298.64,338.05Z" style="fill:#263238"></path><path d="M298.64,338.05v5.64a1.64,1.64,0,0,1-1.64,1.65H95.54a1.65,1.65,0,0,1-1.65-1.65v-5.64a1.65,1.65,0,0,1,1.65-1.65H297A1.64,1.64,0,0,1,298.64,338.05Z" style="fill:#fff;opacity:0.1;isolation:isolate"></path><path d="M150.76,338.05v5.64a1.64,1.64,0,0,1-1.64,1.65H95.54a1.65,1.65,0,0,1-1.65-1.65v-5.64a1.65,1.65,0,0,1,1.65-1.65h53.58A1.64,1.64,0,0,1,150.76,338.05Z" style="fill:#fff;opacity:0.2;isolation:isolate"></path><g id="freepik--group--inject-5"><path d="M206.76,250s3.74.76,3.73,1.44-1.46,6.09-2.13,6.75a12.07,12.07,0,0,1-2.26,1.46l1,8.73-5.11,1.32-.07-9.3s-1.8-2.74-.51-5.42S206.76,250,206.76,250Z" style="fill:#ebb376"></path><path d="M206.76,250s3.74.76,3.73,1.44-1.46,6.09-2.13,6.75a12.07,12.07,0,0,1-2.26,1.46l1,8.73-5.11,1.32-.07-9.3s-1.8-2.74-.51-5.42S206.76,250,206.76,250Z" style="opacity:0.2;isolation:isolate"></path><path d="M193.18,251c3.38,2.42,4.66,15.79,6,17.73s1.86-3.69,1.86-3.69l6.81-.33s.93,8-3,13.61-11.17,1.46-15.28-7.62S193.18,251,193.18,251Z" style="fill:#C53F3F"></path><path d="M204.85,278.34a5.65,5.65,0,0,1-3.09,2.37c-3.94,1.13-9-3-12.18-10a14.44,14.44,0,0,1-1.17-6.93c.44-6.8,4.77-12.77,4.77-12.77,3.37,2.42,4.66,15.79,6,17.73s1.86-3.69,1.86-3.69l6.81-.33S208.78,272.68,204.85,278.34Z" style="fill:#fff;opacity:0.2;isolation:isolate"></path><polygon points="237.62 408.66 244.37 406.81 243.16 390.36 236.43 392.21 237.62 408.66" style="fill:#ebb376"></polygon><path d="M244.78,405.92l-7.83.54a.49.49,0,0,0-.48.51h0l.05,6.22a1.23,1.23,0,0,0,1.3,1.15c2.73-.24,4-.49,7.46-.75a63.66,63.66,0,0,0,9.16-.92c2.85-.66,2.12-3.46.85-3.44-3,.06-7.21-1.6-9.29-3A1.89,1.89,0,0,0,244.78,405.92Z" style="fill:#263238"></path><path d="M247.33,406.93a8.45,8.45,0,0,1-1.88-.12.16.16,0,0,1-.13-.11.23.23,0,0,1,.05-.18c.21-.17,2.1-1.65,3-1.38a.61.61,0,0,1,.4.44.86.86,0,0,1-.13.92A1.88,1.88,0,0,1,247.33,406.93Zm.92-1.45c-.47-.14-1.58.52-2.36,1.09,1.26.16,2.18.06,2.49-.29a.6.6,0,0,0,.07-.58.3.3,0,0,0-.2-.22Z" style="fill:#C53F3F"></path><path d="M245.49,406.81l-.07,0a.22.22,0,0,1-.1-.13c0-.06-.3-2.07.35-2.8a.86.86,0,0,1,.68-.28.63.63,0,0,1,.62.45c.21.75-.73,2.28-1.39,2.74Zm.77-2.84a.47.47,0,0,0-.34.17,3.53,3.53,0,0,0-.3,2.24,3.43,3.43,0,0,0,1-2.19c0-.1-.09-.21-.32-.22Z" style="fill:#C53F3F"></path><polygon points="236.43 392.21 243.16 390.37 243.85 399.77 237.08 401.28 236.43 392.21" style="opacity:0.2;isolation:isolate"></polygon><polygon points="228.81 408.42 222.44 411.32 220.82 404.49 218.64 395.28 224.99 392.37 227.17 401.57 228.81 408.42" style="fill:#ebb376"></polygon><polygon points="227.17 401.57 220.82 404.49 218.64 395.28 224.99 392.37 227.17 401.57" style="opacity:0.2;isolation:isolate"></polygon><path d="M229.07,407.48l-7.64,1.78a.5.5,0,0,0-.4.58h0l1,6.14a1.25,1.25,0,0,0,1.47.93c2.66-.67,3.89-1.12,7.25-1.93a66.51,66.51,0,0,0,8.89-2.36c2.72-1.11,1.55-3.77.3-3.54a19.14,19.14,0,0,1-9.65-1.49A2,2,0,0,0,229.07,407.48Z" style="fill:#263238"></path><path d="M231.75,408.07a8.35,8.35,0,0,1-1.87.18.16.16,0,0,1-.15-.09.22.22,0,0,1,0-.18c.19-.2,1.81-2,2.72-1.84a.6.6,0,0,1,.47.37.87.87,0,0,1,0,.93A1.84,1.84,0,0,1,231.75,408.07Zm.68-1.58c-.49-.07-1.48.77-2.16,1.45,1.28,0,2.16-.29,2.41-.68a.59.59,0,0,0,0-.59.33.33,0,0,0-.23-.18Z" style="fill:#C53F3F"></path><path d="M229.91,408.24a.07.07,0,0,1-.06,0,.23.23,0,0,1-.12-.1c0-.06-.63-2-.1-2.83a.84.84,0,0,1,.62-.38.61.61,0,0,1,.69.34c.33.71-.35,2.37-.94,2.93A.09.09,0,0,1,229.91,408.24Zm.31-2.92a.5.5,0,0,0-.31.22,3.66,3.66,0,0,0,.06,2.26,3.41,3.41,0,0,0,.68-2.33c0-.09-.12-.19-.35-.16Z" style="fill:#C53F3F"></path><path d="M181.6,315l-2.06-22.73-38,.89s-4.49,31.68-1.22,37.5c5.83,10.39,44.1,4.49,53.05,5.38,3.66,1.95,23.22,66.77,23.22,66.77l10.95-4.42s-11.78-54.71-14.46-65C209.38,319,194.17,319.26,181.6,315Z" style="fill:#C53F3F"></path><path d="M181.6,315l-2.06-22.73-38,.89s-4.49,31.68-1.22,37.5c5.83,10.39,44.1,4.49,53.05,5.38,3.66,1.95,23.22,66.77,23.22,66.77l10.95-4.42s-11.78-54.71-14.46-65C209.38,319,194.17,319.26,181.6,315Z" style="fill:#fff;opacity:0.6000000000000001;isolation:isolate"></path><path d="M244.52,397.24l-9.66.9S223,337.81,222.09,337.56c-1.65-.47-6.45-1-9-1.69C195.14,331.21,151,322.63,151,322.63L167.27,307s73.81,8.86,75.45,26.18C243.5,341.46,244.52,397.24,244.52,397.24Z" style="fill:#C53F3F"></path><path d="M244.52,397.24l-9.66.9S223,337.81,222.09,337.56c-1.65-.47-6.45-1-9-1.69C195.14,331.21,151,322.63,151,322.63L167.27,307s73.81,8.86,75.45,26.18C243.5,341.46,244.52,397.24,244.52,397.24Z" style="fill:#fff;opacity:0.6000000000000001;isolation:isolate"></path><path d="M219.48,337.6c-1.65-.47-3.84-1.05-6.42-1.73.72.38-1.36-9-3.43-11.44-4.1-4.84-20.59-7.46-26.51-8.41-4.94-.79-21.54-2.26-21.54-2.26s29.3-2.53,51.38,3.53C223.87,320.29,221.93,331,219.48,337.6Z" style="opacity:0.2;isolation:isolate"></path><path d="M180.41,296.88c2.22-12.74,6-29.79,12.87-45.74a80.68,80.68,0,0,0-11.2-3.8,150.68,150.68,0,0,0-17-3.56,76.18,76.18,0,0,0-11.89-.33s-8.56,16-12.9,53.43Z" style="fill:#C53F3F"></path><path d="M199.45,253a.57.57,0,0,0,.49.73l6.45.91a.76.76,0,0,0,.82-.55l3.22-12.53a.65.65,0,0,0-.47-.82l-6.45-.9a.84.84,0,0,0-.84.64Z" style="fill:#263238"></path><path d="M203.4,240.46l-3.26,12.65a.49.49,0,0,0,.42.68l5.47.77c.37.05,1.07-.06,1.16-.42l3.27-12.69c.09-.36-.5-.73-.86-.79l-5.47-.76A.68.68,0,0,0,203.4,240.46Z" style="fill:#fff;opacity:0.5"></path><path d="M168.05,254.57s-10-7.95-11.22-12.65,4.6-7.87,12.8-6.06,15.78,7,13.36,13-6.66,7.46-6.66,7.46S174.57,252.88,168.05,254.57Z" style="fill:#C53F3F"></path><path d="M188.78,259.84l5.76-3.78s2.45-7.38,3-8.1,6.63.93,7.3,1-1.11,7.6-1.92,8.25-3.46.74-3.46.74l-6.55,5.77Z" style="fill:#ebb376"></path><path d="M168.05,254.57s-10-7.95-11.22-12.65,4.6-7.87,12.8-6.06,15.78,7,13.36,13-6.66,7.46-6.66,7.46S174.57,252.88,168.05,254.57Z" style="fill:#fff;opacity:0.2;isolation:isolate"></path><path d="M174.57,229.49c-1.51,5.47-5.11,15.08-10.26,16.67,0,0,3.79,6.2,9.47,6.72,3.61.33,5.61-3.74,5.61-3.74-3.68-.69-2.27-3.39.63-6.78Z" style="fill:#ebb376"></path><path d="M176.79,234.74l3.22,7.62a17.46,17.46,0,0,0-1.85,2.51c-3.62.27-6.22-5.47-5.33-7.8C173.15,236.11,176.15,235.52,176.79,234.74Z" style="opacity:0.2;isolation:isolate"></path><path d="M187.08,220.76c-3.45,1.42-2.79,5.19,2.93,12.06,3.53-3,5.44-9.95,3.59-12.17S190.09,219.52,187.08,220.76Z" style="fill:#263238"></path><path d="M172.89,223.7c-1.2,7.47-2.28,11.78.59,16.4,4.31,6.94,14.16,5.61,17.58-1.35,3.05-6.26,4.51-17.42-2-22a10.33,10.33,0,0,0-16.13,6.92Z" style="fill:#ebb376"></path><path d="M183.44,228.19c-.14.6.07,1.16.47,1.25s.81-.33.94-.93-.07-1.15-.45-1.24S183.61,227.61,183.44,228.19Z" style="fill:#263238"></path><path d="M190.25,229.73c-.13.6.08,1.16.47,1.25s.82-.32,1-.93-.08-1.16-.47-1.24S190.38,229.14,190.25,229.73Z" style="fill:#263238"></path><path d="M188,229.52a22,22,0,0,0,1.72,5.77,3.54,3.54,0,0,1-3-.11Z" style="fill:#d58745"></path><path d="M182.06,225.63a.38.38,0,0,1-.21-.1.36.36,0,0,1,0-.51,3.55,3.55,0,0,1,3.2-.81.36.36,0,0,1,.25.42v0a.38.38,0,0,1-.45.24h0a2.83,2.83,0,0,0-2.51.66A.37.37,0,0,1,182.06,225.63Z" style="fill:#263238"></path><path d="M193.87,228.13a.37.37,0,0,1-.28-.27,2.85,2.85,0,0,0-1.62-2,.36.36,0,1,1,.24-.68,3.58,3.58,0,0,1,2.08,2.56.36.36,0,0,1-.26.43h-.16Z" style="fill:#263238"></path><path d="M177.29,217.84c3.18,1.95,1.92,5.57-4.82,11.42-3-3.56-3.78-10.69-1.6-12.57S174.51,216.13,177.29,217.84Z" style="fill:#263238"></path><path d="M168.06,228.81a7.16,7.16,0,0,0,2.39,4.94c1.9,1.66,3.93.22,4.31-2.13.34-2.12-.23-5.55-2.57-6.3A3.21,3.21,0,0,0,168.06,228.81Z" style="fill:#ebb376"></path><path d="M171.43,216.28s-.67-2.93,4.59-5.71,13.77-.43,19.3,3.58-1.2,9-3.89,9.14l.75-.93a19.82,19.82,0,0,1-8.43-1.44l1.71-.56S174.75,218.4,171.43,216.28Z" style="fill:#263238"></path><path d="M185.44,236.8a18.44,18.44,0,0,0-1.36,2.35,4,4,0,0,1-.46-.14c-2.07-.64-2.82-1.63-3-2.52a3.17,3.17,0,0,1,.34-2,10.22,10.22,0,0,0,3.8,2.11C185.17,236.73,185.44,236.8,185.44,236.8Z" style="fill:#263238"></path><path d="M184.74,236.57l-.42.68c-1.95-.61-3.24-1.3-3.66-2.08a2.86,2.86,0,0,1,.28-.71A10.22,10.22,0,0,0,184.74,236.57Z" style="fill:#fff"></path><path d="M183.62,239c-2.07-.64-2.82-1.63-3-2.52a7,7,0,0,1,2.16,1.17A2.58,2.58,0,0,1,183.62,239Z" style="fill:#a24e3f"></path><path d="M180,276.46h0a.25.25,0,0,1-.24-.26c.84-12.26-3.26-20.25-3.3-20.33a.25.25,0,0,1,.1-.34.26.26,0,0,1,.34.11c0,.08,4.21,8.19,3.36,20.59A.25.25,0,0,1,180,276.46Z" style="fill:#fff"></path><path d="M164.86,272.1a.31.31,0,0,1-.13,0,.25.25,0,0,1-.08-.34c4.49-7.64,3.17-18,3.16-18.08a.24.24,0,0,1,.21-.28.25.25,0,0,1,.28.21c0,.11,1.36,10.62-3.22,18.4A.25.25,0,0,1,164.86,272.1Z" style="fill:#fff"></path><path d="M179.82,276s.8,0,.66,1.34l-1.17-.11S179.18,276.18,179.82,276Z" style="fill:#fff"></path><path d="M164.94,271.39s.66.45-.12,1.49l-.95-.7S164.31,271.18,164.94,271.39Z" style="fill:#fff"></path><path d="M154.18,243.46c3.85.89,13.08,16.85,18,19.79s18.58-6.52,18.58-6.52l4.67,5.81s-11.05,9.75-20.72,10-23.38-13.44-25.42-18.46S149.51,242.38,154.18,243.46Z" style="fill:#C53F3F"></path><path d="M154.18,243.46c3.85.89,13.08,16.85,18,19.79s18.58-6.52,18.58-6.52l4.67,5.81s-11.05,9.75-20.72,10-23.38-13.44-25.42-18.46S149.51,242.38,154.18,243.46Z" style="fill:#fff;opacity:0.2;isolation:isolate"></path></g></g><g id="freepik--Backpack--inject-5"><path d="M144.71,284.8s7.76,5.8,10.53,18.86,13.22,41.92-10.53,30.52l.62-2.7s7.57,6.46,10.33,2.11,1.33-27.69-9.82-40.09Z" style="fill:#263238"></path><path d="M128.72,279.4s2.81-5.68,7-5.81,5.61,1.06,5.34,5.15l-1.87.13s1.9-3.42-2.61-3.56a6,6,0,0,0-5.8,4.09Z" style="fill:#263238"></path><path d="M106.09,336.4s-3.65-22.59,5.85-29.44c0,0-1.51-4.74,6.14-20.31,3.17-6.46,5.86-8.24,8.53-8.36l18.52-.76a3.77,3.77,0,0,1,3.9,3.26c1.3,9.66,4.44,37.66.09,55.61Z" style="fill:#263238"></path><path d="M106.09,336.4s-3.65-22.59,5.85-29.44c0,0-1.51-4.74,6.14-20.31,3.17-6.46,5.86-8.24,8.53-8.36l18.52-.76a3.77,3.77,0,0,1,3.9,3.26c1.3,9.66,4.44,37.66.09,55.61Z" style="fill:#fff;opacity:0.1;isolation:isolate"></path><path d="M135.84,302.22a2.79,2.79,0,0,0,2.83-3.4c-.86-3.68-3.26-9.06-9.95-10.06-7.19-1.08-11.73,5.42-13.84,9.5a2.23,2.23,0,0,0,1.91,3.26Z" style="fill:#263238"></path><path d="M109.11,312.63c.47-1.63,24.4-.66,26,0s-.33,17.27-1.75,18.85-24.76.53-26.54,0S105.29,325.94,109.11,312.63Z" style="fill:#263238"></path><path d="M135.84,302.22a2.79,2.79,0,0,0,2.83-3.4c-.86-3.68-3.26-9.06-9.95-10.06-7.19-1.08-11.73,5.42-13.84,9.5a2.23,2.23,0,0,0,1.91,3.26Z" style="fill:#fff;opacity:0.2;isolation:isolate"></path><path d="M109.11,312.63c.47-1.63,24.4-.66,26,0s-.33,17.27-1.75,18.85-24.76.53-26.54,0S105.29,325.94,109.11,312.63Z" style="fill:#fff;opacity:0.2;isolation:isolate"></path><path d="M147.48,318.66h-.06a.5.5,0,0,1-.43-.56c1.28-9.64-.76-33.08-1.18-34.76a3.16,3.16,0,0,0-3.1-2.65c-2.06-.13-18.53,0-18.69,0h0a.51.51,0,0,1-.5-.5.5.5,0,0,1,.5-.5c.68,0,16.66-.13,18.76,0a4.19,4.19,0,0,1,4,3.41c.4,1.59,2.55,25,1.2,35.13A.5.5,0,0,1,147.48,318.66Z" style="fill:#263238"></path><path d="M132.37,316.29h-.1c-5.76-1.16-22.35-.52-22.52-.52a.5.5,0,0,1,0-1c.68,0,16.87-.64,22.75.54a.51.51,0,0,1,.39.59A.5.5,0,0,1,132.37,316.29Z" style="fill:#263238"></path><path d="M137.07,298.62a.49.49,0,0,1-.48-.35c-1.1-3.37-3.84-9-9.86-8.49-6.17.5-8.82,7.21-8.85,7.28a.5.5,0,0,1-.93-.36c.12-.3,2.91-7.37,9.7-7.91s9.7,5.52,10.89,9.18a.5.5,0,0,1-.32.63Z" style="fill:#263238"></path></g><g id="freepik--trash-bin--inject-5"><rect x="77.2" y="364.08" width="25.85" height="18.07" style="fill:#263238"></rect><path d="M68.89,360v57.13h35.67V360Zm31.78,16.88H89.33V370a2.88,2.88,0,0,1,2.88-2.88h5.58a2.88,2.88,0,0,1,2.88,2.88Z" style="fill:#C53F3F"></path><path d="M68.89,360v57.13h35.67V360Zm31.78,16.88H89.33V370a2.88,2.88,0,0,1,2.88-2.88h5.58a2.88,2.88,0,0,1,2.88,2.88Z" style="fill:#fff;opacity:0.6000000000000001;isolation:isolate"></path><rect x="68.89" y="359.99" width="15.3" height="57.13" style="fill:#fff;opacity:0.4;isolation:isolate"></rect><rect x="67.97" y="356.97" width="37.43" height="5.52" style="fill:#C53F3F"></rect><rect x="67.97" y="356.97" width="17.27" height="5.52" style="fill:#fff;opacity:0.2;isolation:isolate"></rect></g></svg>