<svg xmlns="http://www.w3.org/2000/svg" xmlns:xlink="http://www.w3.org/1999/xlink" viewBox="0 0 500 500"><defs><clipPath id="freepik--clip-path--inject-68"><path d="M274.92,330.5V311H216.24v19.5A27.88,27.88,0,0,1,210,348l-2.57,3.18h76.28L281.15,348A27.83,27.83,0,0,1,274.92,330.5Z" style="fill:#fff;stroke:#263238;stroke-linecap:round;stroke-linejoin:round"></path></clipPath></defs><g id="freepik--background-simple--inject-68"><path d="M394.5,162s3.75-50.56-48.69-84.27-127.35-27.16-177.92-.94S124.82,162.9,108,201.29s-55.25,45-52.44,97.39,35.59,77.72,73,86.15,72.11-1.87,105.82,3.74,80.53,16.86,134.84-4.68,64.61-80.53,57.12-127.35S394.5,192.87,394.5,162Z" style="fill:#C53F3F"></path><path d="M394.5,162s3.75-50.56-48.69-84.27-127.35-27.16-177.92-.94S124.82,162.9,108,201.29s-55.25,45-52.44,97.39,35.59,77.72,73,86.15,72.11-1.87,105.82,3.74,80.53,16.86,134.84-4.68,64.61-80.53,57.12-127.35S394.5,192.87,394.5,162Z" style="fill:#fff;opacity:0.7000000000000001"></path></g><g id="freepik--character-2--inject-68"><ellipse cx="384.5" cy="426.5" rx="47.5" ry="10.5" style="fill:#C53F3F"></ellipse><ellipse cx="384.5" cy="426.5" rx="47.5" ry="10.5" style="fill:#fff;opacity:0.5"></ellipse><path d="M359.66,415.76s-11.52,6.48-11.52,9.6,7.11,1.2,11.76-1,8.34-3.84,8.34-8.16S359.66,415.76,359.66,415.76Z" style="fill:#C53F3F;stroke:#263238;stroke-miterlimit:10"></path><path d="M414.81,415.76s11.52,6.48,11.52,9.6-7.11,1.2-11.76-1-8.34-3.84-8.34-8.16S414.81,415.76,414.81,415.76Z" style="fill:#C53F3F;stroke:#263238;stroke-miterlimit:10"></path><path d="M364.32,309.69,359.41,417a6.52,6.52,0,0,0,4.91,1.44,6.41,6.41,0,0,0,3.92-2.16l16.67-87.59h3.43L406,417.92a8.12,8.12,0,0,0,3.43,1c1.71,0,4.41-2.16,4.41-2.16l-5.64-107Z" style="fill:#263238;stroke:#263238;stroke-miterlimit:10"></path><polygon points="381.48 244.66 359.17 253.77 365.05 305.61 407.7 305.61 415.55 251.85 391.28 244.18 381.48 244.66" style="fill:#C53F3F;stroke:#263238;stroke-miterlimit:10"></polygon><polygon points="383.93 252.09 386.62 256.41 382.21 293.61 387.6 301.53 392.26 292.89 388.58 255.93 391.77 250.9 387.11 248.86 383.93 252.09" style="fill:#263238;stroke:#263238;stroke-miterlimit:10"></polygon><polygon points="387.11 248.86 383.53 254.99 377.15 246.49 380.72 242.24 387.11 248.86" style="fill:#C53F3F;stroke:#263238;stroke-miterlimit:10"></polygon><polygon points="387.11 248.86 391.45 255.61 396.68 245.99 393.62 242.11 387.11 248.86" style="fill:#C53F3F;stroke:#263238;stroke-miterlimit:10"></polygon><polygon points="378.45 263.37 363.42 263.37 363.42 268.49 370.94 271.37 378.45 268.17 378.45 263.37" style="fill:#C53F3F;stroke:#263238;stroke-miterlimit:10"></polygon><polygon points="408.52 263.37 393.49 263.37 393.49 268.49 401 271.37 408.52 268.17 408.52 263.37" style="fill:#C53F3F;stroke:#263238;stroke-miterlimit:10"></polygon><rect x="364.32" y="304.65" width="43.88" height="5.04" style="fill:#263238;stroke:#263238;stroke-miterlimit:10"></rect><path d="M363.58,308.73l-7.6,3.12a24.54,24.54,0,0,0,.49,6.48c.74,2.88,1.72,9.12,2.45,10.32s4.42,3.6,4.91,2.88,2.94-21.84,2.94-21.84Z" style="fill:#263238;stroke:#263238;stroke-miterlimit:10"></path><polygon points="380.72 233.49 380.72 242.24 387.11 248.86 393.62 242.11 393.62 233.36 380.72 233.49" style="fill:#fff;stroke:#263238;stroke-miterlimit:10"></polygon><path d="M376.26,225.37s-1.15-2.63-1.92-1,.13,4.12,1.28,5.12a4.11,4.11,0,0,0,2.93.75l-.64-3.75Z" style="fill:#fff;stroke:#263238;stroke-miterlimit:10"></path><path d="M397.06,225.37s1.15-2.63,1.92-1-.13,4.12-1.28,5.12a4.13,4.13,0,0,1-2.94.75l.64-3.75Z" style="fill:#fff;stroke:#263238;stroke-miterlimit:10"></path><path d="M378.43,208s-5.37,2.25-5.37,6,.77,8,2.05,9.63,2.29,2.75,2.29,2.75l.26-5.38,3.7-6.37s6.13,3.87,9.19,3.87a31.6,31.6,0,0,0,5.11-.37l1.15,6.37,1.66-4.62v-4.25s3.06-2.88,2.42-4.75-11-7.75-17.36-6.25S378.43,208,378.43,208Z" style="fill:#263238;stroke:#263238;stroke-miterlimit:10"></path><path d="M375.87,220.62s1.53,9.37,2.81,11.87a34.74,34.74,0,0,0,6.13,7.5c.89.62,4.21.12,5.49.12s5-7.5,5.61-8.87,1-13.12,1-13.12L395.79,216s-5.49,1.38-9.83-.37a15,15,0,0,1-6.13-4.13s-.38,4.25-1.92,6.75S375.87,220.62,375.87,220.62Z" style="fill:#fff;stroke:#263238;stroke-miterlimit:10"></path><path d="M385.7,221.62a11,11,0,0,0-5-1.25,9.41,9.41,0,0,0-4.34.87s0,4.25,1.41,5.88,5.49,1.12,6.64-.25S385.7,221.62,385.7,221.62Z" style="fill:#263238;stroke:#263238;stroke-miterlimit:10"></path><path d="M387.49,221.62a11,11,0,0,1,5-1.25,9.41,9.41,0,0,1,4.34.87s0,4.25-1.41,5.88-5.49,1.12-6.63-.25S387.49,221.62,387.49,221.62Z" style="fill:#263238;stroke:#263238;stroke-miterlimit:10"></path><line x1="385.7" y1="221.62" x2="387.49" y2="221.62" style="fill:#fff;stroke:#263238;stroke-miterlimit:10"></line><path d="M359.41,300.81l8.09-.24,6.13,5.52a3,3,0,0,1-.73,1.92c-.74.72-2.7.24-2.7.24s-1.47,3.6-4.17,3.6-10-5-10-5Z" style="fill:#fff;stroke:#263238;stroke-miterlimit:10"></path><polygon points="359.17 253.77 331.96 289.53 355.98 306.81 359.41 300.81 352.06 286.65 362.11 277.53 359.17 253.77" style="fill:#C53F3F;stroke:#263238;stroke-miterlimit:10"></polygon><line x1="357.45" y1="296.73" x2="353.29" y2="304.17" style="fill:none;stroke:#263238;stroke-linecap:round;stroke-linejoin:round"></line><line x1="352.06" y1="286.65" x2="348.87" y2="278.49" style="fill:none;stroke:#263238;stroke-linecap:round;stroke-linejoin:round"></line><path d="M415.55,300.81l-8.09-.24-6.13,5.52a3,3,0,0,0,.74,1.92c.73.72,2.69.24,2.69.24s1.47,3.6,4.17,3.6,10.05-5,10.05-5Z" style="fill:#fff;stroke:#263238;stroke-miterlimit:10"></path><polygon points="415.55 251.85 443 289.53 418.98 306.81 415.55 300.81 422.9 286.65 411.38 277.29 415.55 251.85" style="fill:#C53F3F;stroke:#263238;stroke-miterlimit:10"></polygon><line x1="417.51" y1="296.73" x2="421.67" y2="304.17" style="fill:none;stroke:#263238;stroke-linecap:round;stroke-linejoin:round"></line><line x1="422.9" y1="286.65" x2="426.09" y2="278.49" style="fill:none;stroke:#263238;stroke-linecap:round;stroke-linejoin:round"></line></g><g id="freepik--character-1--inject-68"><ellipse cx="106.5" cy="426.5" rx="47.5" ry="10.5" style="fill:#C53F3F"></ellipse><ellipse cx="106.5" cy="426.5" rx="47.5" ry="10.5" style="fill:#fff;opacity:0.5"></ellipse><path d="M81.82,415.76s-11.52,6.48-11.52,9.6,7.11,1.2,11.77-1,8.33-3.84,8.33-8.16S81.82,415.76,81.82,415.76Z" style="fill:#C53F3F;stroke:#263238;stroke-miterlimit:10"></path><path d="M137,415.76s11.52,6.48,11.52,9.6-7.1,1.2-11.76-1-8.34-3.84-8.34-8.16S137,415.76,137,415.76Z" style="fill:#C53F3F;stroke:#263238;stroke-miterlimit:10"></path><path d="M86.48,309.69,81.58,417a6.49,6.49,0,0,0,4.9,1.44,6.41,6.41,0,0,0,3.92-2.16l16.67-87.59h3.43l17.65,89.27a8.12,8.12,0,0,0,3.43,1c1.72,0,4.41-2.16,4.41-2.16l-5.64-107Z" style="fill:#263238;stroke:#263238;stroke-miterlimit:10"></path><polygon points="103.64 244.66 81.33 253.77 87.21 305.61 129.87 305.61 137.71 251.85 113.44 244.18 103.64 244.66" style="fill:#C53F3F;stroke:#263238;stroke-miterlimit:10"></polygon><rect x="86.48" y="304.65" width="43.88" height="5.04" style="fill:#263238;stroke:#263238;stroke-miterlimit:10"></rect><path d="M85.74,308.73l-7.6,3.12a24.54,24.54,0,0,0,.49,6.48c.74,2.88,1.72,9.12,2.46,10.32s4.41,3.6,4.9,2.88,2.94-21.84,2.94-21.84Z" style="fill:#263238;stroke:#263238;stroke-miterlimit:10"></path><polygon points="102.89 233.49 102.89 242.24 109.27 248.86 115.78 242.11 115.78 233.36 102.89 233.49" style="fill:#fff;stroke:#263238;stroke-miterlimit:10"></polygon><path d="M98.42,225.37s-1.15-2.63-1.92-1,.13,4.12,1.28,5.12a4.13,4.13,0,0,0,2.94.75l-.64-3.75Z" style="fill:#fff;stroke:#263238;stroke-miterlimit:10"></path><path d="M119.22,225.37s1.15-2.63,1.92-1-.13,4.12-1.28,5.12a4.11,4.11,0,0,1-2.93.75l.63-3.75Z" style="fill:#fff;stroke:#263238;stroke-miterlimit:10"></path><path d="M100.59,208s-5.36,2.25-5.36,6,.76,8,2,9.63,2.3,2.75,2.3,2.75l.25-5.38,3.7-6.37s6.13,3.87,9.19,3.87a31.6,31.6,0,0,0,5.11-.37l1.15,6.37,1.66-4.62v-4.25s3.06-2.88,2.42-4.75-11-7.75-17.36-6.25S100.59,208,100.59,208Z" style="fill:#263238;stroke:#263238;stroke-miterlimit:10"></path><path d="M98,220.62s1.54,9.37,2.81,11.87A35,35,0,0,0,107,240c.89.62,4.21.12,5.49.12s5-7.5,5.62-8.87,1-13.12,1-13.12L118,216s-5.49,1.38-9.83-.37a15,15,0,0,1-6.13-4.13s-.38,4.25-1.91,6.75S98,220.62,98,220.62Z" style="fill:#fff;stroke:#263238;stroke-miterlimit:10"></path><path d="M107.86,221.62a11,11,0,0,0-5-1.25,9.41,9.41,0,0,0-4.34.87s0,4.25,1.4,5.88,5.49,1.12,6.64-.25S107.86,221.62,107.86,221.62Z" style="fill:#263238;stroke:#263238;stroke-miterlimit:10"></path><path d="M109.65,221.62a11,11,0,0,1,5-1.25,9.41,9.41,0,0,1,4.34.87s0,4.25-1.41,5.88-5.48,1.12-6.63-.25S109.65,221.62,109.65,221.62Z" style="fill:#263238;stroke:#263238;stroke-miterlimit:10"></path><line x1="107.86" y1="221.62" x2="109.65" y2="221.62" style="fill:#fff;stroke:#263238;stroke-miterlimit:10"></line><polygon points="106.09 252.09 108.78 256.41 104.37 293.61 109.77 301.53 114.42 292.89 110.75 255.93 113.93 250.9 109.27 248.86 106.09 252.09" style="fill:#263238;stroke:#263238;stroke-miterlimit:10"></polygon><polygon points="109.27 248.86 105.69 254.99 99.31 246.49 102.89 242.24 109.27 248.86" style="fill:#C53F3F;stroke:#263238;stroke-miterlimit:10"></polygon><polygon points="109.27 248.86 113.61 255.61 118.84 245.99 115.78 242.11 109.27 248.86" style="fill:#C53F3F;stroke:#263238;stroke-miterlimit:10"></polygon><polygon points="81.33 253.77 54.12 289.53 78.14 306.81 81.58 300.81 74.22 286.65 84.27 277.53 81.33 253.77" style="fill:#C53F3F;stroke:#263238;stroke-miterlimit:10"></polygon><path d="M81.58,300.81l8.08-.24,6.13,5.52a3,3,0,0,1-.73,1.92c-.74.72-2.7.24-2.7.24s-1.47,3.6-4.17,3.6-10-5-10-5Z" style="fill:#fff;stroke:#263238;stroke-miterlimit:10"></path><line x1="79.62" y1="296.73" x2="75.45" y2="304.17" style="fill:none;stroke:#263238;stroke-linecap:round;stroke-linejoin:round"></line><line x1="74.22" y1="286.65" x2="71.04" y2="278.49" style="fill:none;stroke:#263238;stroke-linecap:round;stroke-linejoin:round"></line><polygon points="137.71 251.85 165.16 289.53 141.14 306.81 137.71 300.81 145.06 286.65 133.54 277.29 137.71 251.85" style="fill:#C53F3F;stroke:#263238;stroke-miterlimit:10"></polygon><path d="M137.71,300.81l-8.09-.24-6.13,5.52a3,3,0,0,0,.74,1.92c.73.72,2.69.24,2.69.24s1.47,3.6,4.17,3.6,10-5,10-5Z" style="fill:#fff;stroke:#263238;stroke-miterlimit:10"></path><line x1="139.67" y1="296.73" x2="143.84" y2="304.17" style="fill:none;stroke:#263238;stroke-linecap:round;stroke-linejoin:round"></line><line x1="145.06" y1="286.65" x2="148.25" y2="278.49" style="fill:none;stroke:#263238;stroke-linecap:round;stroke-linejoin:round"></line><polygon points="100.61 263.37 85.58 263.37 85.58 268.49 93.1 271.37 100.61 268.17 100.61 263.37" style="fill:#C53F3F;stroke:#263238;stroke-miterlimit:10"></polygon><polygon points="130.68 263.37 115.65 263.37 115.65 268.49 123.17 271.37 130.68 268.17 130.68 263.37" style="fill:#C53F3F;stroke:#263238;stroke-miterlimit:10"></polygon></g></svg>